<svg id="kity_svg_6" xmlns="http://www.w3.org/2000/svg" xmlns:xlink="http://www.w3.org/1999/xlink" version="1.1" width="678" height="681" style="background: rgb(251, 251, 251); visibility: visible;" viewBox="0 0 678 681"><defs id="kity_defs_7"><linearGradient id="kity_linearGradient_17" x1="0" y1="0" x2="0" y2="1"><stop id="kity_stop_18" offset="0" stop-color="rgb(255, 255, 255)"></stop><stop id="kity_stop_19" offset="1" stop-color="rgb(204, 204, 204)"></stop></linearGradient><marker id="kity_marker_4" orient="auto" refX="6" refY="0" viewBox="-7 -7 14 14" markerWidth="7" markerHeight="7" markerUnits="userSpaceOnUse"><path id="kity_path_5" fill="rgb(115, 161, 191)" stroke="none" d="M6,0A6,6,0,1,1,-6,0A6,6,0,1,1,6,0"></path></marker><marker id="kity_marker_2" orient="auto" refX="6" refY="0" viewBox="-7 -7 14 14" markerWidth="7" markerHeight="7" markerUnits="userSpaceOnUse"><path id="kity_path_3" fill="rgb(115, 161, 191)" stroke="none" d="M6,0A6,6,0,1,1,-6,0A6,6,0,1,1,6,0"></path></marker></defs><g id="kity_g_8"><g id="minder1" text-rendering="optimize-speed"><g id="minder_connect_group1"><path id="kity_path_31" fill="none" stroke="rgb(115, 161, 191)" stroke-width="1" d="M295.5000051483512,60.499999560415745v30h-240V110.49999956041574"></path><path id="kity_path_39" fill="none" stroke="rgb(115, 161, 191)" stroke-width="1" d="M295.5000051483512,60.499999560415745v30h-35V110.49999956041574"></path><path id="kity_path_47" fill="none" stroke="rgb(115, 161, 191)" stroke-width="1" d="M40.50000514835119,136.49999956041574V182.49999956041574L60.50000514835119,182.49999956041574"></path><path id="kity_path_55" fill="none" stroke="rgb(115, 161, 191)" stroke-width="1" d="M40.50000514835119,136.49999956041574V286.49999956041574L60.50000514835119,286.49999956041574"></path><path id="kity_path_63" fill="none" stroke="rgb(115, 161, 191)" stroke-width="1" d="M40.50000514835119,136.49999956041574V338.49999956041574L60.50000514835119,338.49999956041574"></path><path id="kity_path_71" fill="none" stroke="rgb(115, 161, 191)" stroke-width="1" d="M40.50000514835119,136.49999956041574V390.49999956041574L60.50000514835119,390.49999956041574"></path><path id="kity_path_79" fill="none" stroke="rgb(115, 161, 191)" stroke-width="1" d="M40.50000514835119,136.49999956041574V442.49999956041574L60.50000514835119,442.49999956041574"></path><path id="kity_path_151" fill="none" stroke="rgb(115, 161, 191)" stroke-width="1" d="M295.5000051483512,60.499999560415745v30h91V110.49999956041574"></path><path id="kity_path_159" fill="none" stroke="rgb(115, 161, 191)" stroke-width="1" d="M371.5000051483512,136.49999956041574V182.49999956041574L391.5000051483512,182.49999956041574"></path><path id="kity_path_167" fill="none" stroke="rgb(115, 161, 191)" stroke-width="1" d="M371.5000051483512,136.49999956041574V234.49999956041574L391.5000051483512,234.49999956041574"></path><path id="kity_path_175" fill="none" stroke="rgb(115, 161, 191)" stroke-width="1" d="M371.5000051483512,136.49999956041574V286.49999956041574L391.5000051483512,286.49999956041574"></path><path id="kity_path_183" fill="none" stroke="rgb(115, 161, 191)" stroke-width="1" d="M371.5000051483512,136.49999956041574V338.49999956041574L391.5000051483512,338.49999956041574"></path><path id="kity_path_191" fill="none" stroke="rgb(115, 161, 191)" stroke-width="1" d="M295.5000051483512,60.499999560415745v30h241V110.49999956041574"></path><path id="kity_path_207" fill="none" stroke="rgb(115, 161, 191)" stroke-width="1" d="M521.5000051483512,136.49999956041574V182.49999956041574L541.5000051483512,182.49999956041574"></path><path id="kity_path_215" fill="none" stroke="rgb(115, 161, 191)" stroke-width="1" d="M521.5000051483512,136.49999956041574V234.49999956041574L541.5000051483512,234.49999956041574"></path><path id="kity_path_223" fill="none" stroke="rgb(115, 161, 191)" stroke-width="1" d="M521.5000051483512,136.49999956041574V286.49999956041574L541.5000051483512,286.49999956041574"></path><path id="kity_path_231" fill="none" stroke="rgb(115, 161, 191)" stroke-width="1" d="M521.5000051483512,136.49999956041574V338.49999956041574L541.5000051483512,338.49999956041574"></path><path id="kity_path_263" fill="none" stroke="rgb(115, 161, 191)" stroke-width="1" d="M245.5000051483512,136.49999956041574V182.49999956041574L265.5000051483512,182.49999956041574"></path><path id="kity_path_271" fill="none" stroke="rgb(115, 161, 191)" stroke-width="1" d="M228.5000051483512,193.49999956041574V234.49999956041574L248.5000051483512,234.49999956041574" display="none"></path><path id="kity_path_279" fill="none" stroke="rgb(115, 161, 191)" stroke-width="1" d="M228.5000051483512,193.49999956041574V286.49999956041574L248.5000051483512,286.49999956041574" display="none"></path><path id="kity_path_287" fill="none" stroke="rgb(115, 161, 191)" stroke-width="1" d="M228.5000051483512,193.49999956041574V338.49999956041574L248.5000051483512,338.49999956041574" display="none"></path><path id="kity_path_295" fill="none" stroke="rgb(115, 161, 191)" stroke-width="1" d="M228.5000051483512,193.49999956041574V390.49999956041574L248.5000051483512,390.49999956041574" display="none"></path><path id="kity_path_303" fill="none" stroke="rgb(115, 161, 191)" stroke-width="1" d="M228.5000051483512,193.49999956041574V442.49999956041574L248.5000051483512,442.49999956041574" display="none"></path><path id="kity_path_311" fill="none" stroke="rgb(115, 161, 191)" stroke-width="1" d="M228.5000051483512,193.49999956041574V494.49999956041574L248.5000051483512,494.49999956041574" display="none"></path><path id="kity_path_319" fill="none" stroke="rgb(115, 161, 191)" stroke-width="1" d="M228.5000051483512,193.49999956041574V546.4999995604157L248.5000051483512,546.4999995604157" display="none"></path><path id="kity_path_327" fill="none" stroke="rgb(115, 161, 191)" stroke-width="1" d="M228.5000051483512,193.49999956041574V598.4999995604157L248.5000051483512,598.4999995604157" display="none"></path><path id="kity_path_335" fill="none" stroke="rgb(115, 161, 191)" stroke-width="1" d="M228.5000051483512,193.49999956041574V650.4999995604157L248.5000051483512,650.4999995604157" display="none"></path><path id="kity_path_343" fill="none" stroke="rgb(115, 161, 191)" stroke-width="1" d="M245.5000051483512,136.49999956041574V234.49999956041574L265.5000051483512,234.49999956041574"></path><path id="kity_path_351" fill="none" stroke="rgb(115, 161, 191)" stroke-width="1" d="M222.5000051483512,245.49999956041574V286.49999956041574L242.5000051483512,286.49999956041574" display="none"></path><path id="kity_path_359" fill="none" stroke="rgb(115, 161, 191)" stroke-width="1" d="M222.5000051483512,245.49999956041574V338.49999956041574L242.5000051483512,338.49999956041574" display="none"></path><path id="kity_path_367" fill="none" stroke="rgb(115, 161, 191)" stroke-width="1" d="M222.5000051483512,245.49999956041574V390.49999956041574L242.5000051483512,390.49999956041574" display="none"></path><path id="kity_path_375" fill="none" stroke="rgb(115, 161, 191)" stroke-width="1" d="M222.5000051483512,245.49999956041574V442.49999956041574L242.5000051483512,442.49999956041574" display="none"></path><path id="kity_path_383" fill="none" stroke="rgb(115, 161, 191)" stroke-width="1" d="M222.5000051483512,245.49999956041574V494.49999956041574L242.5000051483512,494.49999956041574" display="none"></path><path id="kity_path_391" fill="none" stroke="rgb(115, 161, 191)" stroke-width="1" d="M222.5000051483512,245.49999956041574V546.4999995604157L242.5000051483512,546.4999995604157" display="none"></path><path id="kity_path_399" fill="none" stroke="rgb(115, 161, 191)" stroke-width="1" d="M222.5000051483512,245.49999956041574V598.4999995604157L242.5000051483512,598.4999995604157" display="none"></path><path id="kity_path_407" fill="none" stroke="rgb(115, 161, 191)" stroke-width="1" d="M222.5000051483512,245.49999956041574V650.4999995604157L242.5000051483512,650.4999995604157" display="none"></path><path id="kity_path_415" fill="none" stroke="rgb(115, 161, 191)" stroke-width="1" d="M222.5000051483512,245.49999956041574V702.4999995604157L242.5000051483512,702.4999995604157" display="none"></path><path id="kity_path_423" fill="none" stroke="rgb(115, 161, 191)" stroke-width="1" d="M222.5000051483512,245.49999956041574V754.4999995604157L242.5000051483512,754.4999995604157" display="none"></path><path id="kity_path_431" fill="none" stroke="rgb(115, 161, 191)" stroke-width="1" d="M222.5000051483512,245.49999956041574V806.4999995604157L242.5000051483512,806.4999995604157" display="none"></path><path id="kity_path_439" fill="none" stroke="rgb(115, 161, 191)" stroke-width="1" d="M222.5000051483512,245.49999956041574V858.4999995604157L242.5000051483512,858.4999995604157" display="none"></path><path id="kity_path_455" fill="none" stroke="rgb(115, 161, 191)" stroke-width="1" d="M245.5000051483512,136.49999956041574V286.49999956041574L265.5000051483512,286.49999956041574"></path><path id="kity_path_463" fill="none" stroke="rgb(115, 161, 191)" stroke-width="1" d="M233.5000051483512,297.49999956041574V338.49999956041574L253.5000051483512,338.49999956041574" display="none"></path><path id="kity_path_471" fill="none" stroke="rgb(115, 161, 191)" stroke-width="1" d="M233.5000051483512,297.49999956041574V390.49999956041574L253.5000051483512,390.49999956041574" display="none"></path><path id="kity_path_479" fill="none" stroke="rgb(115, 161, 191)" stroke-width="1" d="M233.5000051483512,297.49999956041574V442.49999956041574L253.5000051483512,442.49999956041574" display="none"></path><path id="kity_path_487" fill="none" stroke="rgb(115, 161, 191)" stroke-width="1" d="M245.5000051483512,136.49999956041574V338.49999956041574L265.5000051483512,338.49999956041574"></path><path id="kity_path_495" fill="none" stroke="rgb(115, 161, 191)" stroke-width="1" d="M220.5000051483512,349.49999956041574V390.49999956041574L240.5000051483512,390.49999956041574" display="none"></path><path id="kity_path_503" fill="none" stroke="rgb(115, 161, 191)" stroke-width="1" d="M220.5000051483512,349.49999956041574V442.49999956041574L240.5000051483512,442.49999956041574" display="none"></path><path id="kity_path_511" fill="none" stroke="rgb(115, 161, 191)" stroke-width="1" d="M220.5000051483512,349.49999956041574V494.49999956041574L240.5000051483512,494.49999956041574" display="none"></path><path id="kity_path_519" fill="none" stroke="rgb(115, 161, 191)" stroke-width="1" d="M521.5000051483512,136.49999956041574V390.49999956041574L541.5000051483512,390.49999956041574"></path><path id="kity_path_527" fill="none" stroke="rgb(115, 161, 191)" stroke-width="1" d="M521.5000051483512,136.49999956041574V442.49999956041574L541.5000051483512,442.49999956041574"></path><path id="kity_path_535" fill="none" stroke="rgb(115, 161, 191)" stroke-width="1" d="M521.5000051483512,136.49999956041574V494.49999956041574L541.5000051483512,494.49999956041574"></path><path id="kity_path_543" fill="none" stroke="rgb(115, 161, 191)" stroke-width="1" d="M40.50000514835119,136.49999956041574V234.49999956041574L60.50000514835119,234.49999956041574"></path><path id="kity_path_551" fill="none" stroke="rgb(115, 161, 191)" stroke-width="1" d="M40.50000514835119,136.49999956041574V650.4999995604157L60.50000514835119,650.4999995604157"></path><path id="kity_path_559" fill="none" stroke="rgb(115, 161, 191)" stroke-width="1" d="M12.500005148351192,193.49999956041574V234.49999956041574L32.50000514835119,234.49999956041574" display="none"></path><path id="kity_path_567" fill="none" stroke="rgb(115, 161, 191)" stroke-width="1" d="M12.500005148351192,193.49999956041574V286.49999956041574L32.50000514835119,286.49999956041574" display="none"></path><path id="kity_path_583" fill="none" stroke="rgb(115, 161, 191)" stroke-width="1" d="M12.500005148351192,193.49999956041574V338.49999956041574L32.50000514835119,338.49999956041574" display="none"></path><path id="kity_path_599" fill="none" stroke="rgb(115, 161, 191)" stroke-width="1" d="M12.500005148351192,193.49999956041574V390.49999956041574L32.50000514835119,390.49999956041574" display="none"></path><path id="kity_path_607" fill="none" stroke="rgb(115, 161, 191)" stroke-width="1" d="M12.500005148351192,193.49999956041574V442.49999956041574L32.50000514835119,442.49999956041574" display="none"></path><path id="kity_path_631" fill="none" stroke="rgb(115, 161, 191)" stroke-width="1" d="M12.500005148351192,245.49999956041574V390.49999956041574L32.50000514835119,390.49999956041574" display="none"></path><path id="kity_path_639" fill="none" stroke="rgb(115, 161, 191)" stroke-width="1" d="M12.500005148351192,245.49999956041574V442.49999956041574L32.50000514835119,442.49999956041574" display="none"></path><path id="kity_path_655" fill="none" stroke="rgb(115, 161, 191)" stroke-width="1" d="M12.500005148351192,245.49999956041574V494.49999956041574L32.50000514835119,494.49999956041574" display="none"></path><path id="kity_path_663" fill="none" stroke="rgb(115, 161, 191)" stroke-width="1" d="M12.500005148351192,297.49999956041574V338.49999956041574L32.50000514835119,338.49999956041574" display="none"></path><path id="kity_path_671" fill="none" stroke="rgb(115, 161, 191)" stroke-width="1" d="M12.500005148351192,297.49999956041574V390.49999956041574L32.50000514835119,390.49999956041574" display="none"></path><path id="kity_path_679" fill="none" stroke="rgb(115, 161, 191)" stroke-width="1" d="M12.500005148351192,297.49999956041574V442.49999956041574L32.50000514835119,442.49999956041574" display="none"></path><path id="kity_path_687" fill="none" stroke="rgb(115, 161, 191)" stroke-width="1" d="M12.500005148351192,297.49999956041574V494.49999956041574L32.50000514835119,494.49999956041574" display="none"></path><path id="kity_path_695" fill="none" stroke="rgb(115, 161, 191)" stroke-width="1" d="M12.500005148351192,297.49999956041574V546.4999995604157L32.50000514835119,546.4999995604157" display="none"></path><path id="kity_path_711" fill="none" stroke="rgb(115, 161, 191)" stroke-width="1" d="M40.50000514835119,136.49999956041574V494.49999956041574L60.50000514835119,494.49999956041574"></path><path id="kity_path_719" fill="none" stroke="rgb(115, 161, 191)" stroke-width="1" d="M12.500005148351192,297.49999956041574V598.4999995604157L32.50000514835119,598.4999995604157" display="none"></path><path id="kity_path_735" fill="none" stroke="rgb(115, 161, 191)" stroke-width="1" d="M40.50000514835119,136.49999956041574V598.4999995604157L60.50000514835119,598.4999995604157"></path><path id="kity_path_743" fill="none" stroke="rgb(115, 161, 191)" stroke-width="1" d="M40.50000514835119,136.49999956041574V546.4999995604157L60.50000514835119,546.4999995604157"></path><path id="kity_path_751" fill="none" stroke="rgb(115, 161, 191)" stroke-width="1" d="M12.500005148351192,349.49999956041574V390.49999956041574L32.50000514835119,390.49999956041574" display="none"></path><path id="kity_path_759" fill="none" stroke="rgb(115, 161, 191)" stroke-width="1" d="M12.500005148351192,349.49999956041574V442.49999956041574L32.50000514835119,442.49999956041574" display="none"></path><path id="kity_path_767" fill="none" stroke="rgb(115, 161, 191)" stroke-width="1" d="M12.500005148351192,349.49999956041574V494.49999956041574L32.50000514835119,494.49999956041574" display="none"></path><path id="kity_path_775" fill="none" stroke="rgb(115, 161, 191)" stroke-width="1" d="M12.500005148351192,349.49999956041574V546.4999995604157L32.50000514835119,546.4999995604157" display="none"></path><path id="kity_path_783" fill="none" stroke="rgb(115, 161, 191)" stroke-width="1" d="M12.500005148351192,453.49999956041574V494.49999956041574L32.50000514835119,494.49999956041574" display="none"></path><path id="kity_path_791" fill="none" stroke="rgb(115, 161, 191)" stroke-width="1" d="M12.500005148351192,453.49999956041574V546.4999995604157L32.50000514835119,546.4999995604157" display="none"></path><path id="kity_path_799" fill="none" stroke="rgb(115, 161, 191)" stroke-width="1" d="M12.500005148351192,453.49999956041574V598.4999995604157L32.50000514835119,598.4999995604157" display="none"></path><path id="kity_path_807" fill="none" stroke="rgb(115, 161, 191)" stroke-width="1" d="M12.500005148351192,453.49999956041574V650.4999995604157L32.50000514835119,650.4999995604157" display="none"></path><path id="kity_path_815" fill="none" stroke="rgb(115, 161, 191)" stroke-width="1" d="M12.500005148351192,453.49999956041574V702.4999995604157L32.50000514835119,702.4999995604157" display="none"></path><path id="kity_path_831" fill="none" stroke="rgb(115, 161, 191)" stroke-width="1" d="M12.500005148351192,401.49999956041574V442.49999956041574L32.50000514835119,442.49999956041574" display="none"></path><path id="kity_path_839" fill="none" stroke="rgb(115, 161, 191)" stroke-width="1" d="M12.500005148351192,401.49999956041574V494.49999956041574L32.50000514835119,494.49999956041574" display="none"></path><path id="kity_path_847" fill="none" stroke="rgb(115, 161, 191)" stroke-width="1" d="M12.500005148351192,401.49999956041574V546.4999995604157L32.50000514835119,546.4999995604157" display="none"></path><path id="kity_path_855" fill="none" stroke="rgb(115, 161, 191)" stroke-width="1" d="M12.500005148351192,401.49999956041574V598.4999995604157L32.50000514835119,598.4999995604157" display="none"></path><path id="kity_path_863" fill="none" stroke="rgb(115, 161, 191)" stroke-width="1" d="M12.500005148351192,505.49999956041574V546.4999995604157L32.50000514835119,546.4999995604157" display="none"></path><path id="kity_path_871" fill="none" stroke="rgb(115, 161, 191)" stroke-width="1" d="M12.500005148351192,505.49999956041574V598.4999995604157L32.50000514835119,598.4999995604157" display="none"></path><path id="kity_path_879" fill="none" stroke="rgb(115, 161, 191)" stroke-width="1" d="M12.500005148351192,505.49999956041574V650.4999995604157L32.50000514835119,650.4999995604157" display="none"></path><path id="kity_path_887" fill="none" stroke="rgb(115, 161, 191)" stroke-width="1" d="M12.500005148351192,505.49999956041574V702.4999995604157L32.50000514835119,702.4999995604157" display="none"></path><path id="kity_path_895" fill="none" stroke="rgb(115, 161, 191)" stroke-width="1" d="M12.500005148351192,245.49999956041574V286.49999956041574L32.50000514835119,286.49999956041574" display="none"></path><path id="kity_path_903" fill="none" stroke="rgb(115, 161, 191)" stroke-width="1" d="M12.500005148351192,245.49999956041574V338.49999956041574L32.50000514835119,338.49999956041574" display="none"></path><path id="kity_path_911" fill="none" stroke="rgb(115, 161, 191)" stroke-width="1" d="M12.500005148351192,505.49999956041574V754.4999995604157L32.50000514835119,754.4999995604157" display="none"></path><path id="kity_path_919" fill="none" stroke="rgb(115, 161, 191)" stroke-width="1" d="M12.500005148351192,505.49999956041574V806.4999995604157L32.50000514835119,806.4999995604157" display="none"></path><path id="kity_path_927" fill="none" stroke="rgb(115, 161, 191)" stroke-width="1" d="M12.500005148351192,557.4999995604157V650.4999995604157L32.50000514835119,650.4999995604157" display="none"></path><path id="kity_path_935" fill="none" stroke="rgb(115, 161, 191)" stroke-width="1" d="M12.500005148351192,557.4999995604157V702.4999995604157L32.50000514835119,702.4999995604157" display="none"></path><path id="kity_path_943" fill="none" stroke="rgb(115, 161, 191)" stroke-width="1" d="M12.500005148351192,557.4999995604157V598.4999995604157L32.50000514835119,598.4999995604157" display="none"></path><path id="kity_path_951" fill="none" stroke="rgb(115, 161, 191)" stroke-width="1" d="M12.500005148351192,557.4999995604157V754.4999995604157L32.50000514835119,754.4999995604157" display="none"></path><path id="kity_path_959" fill="none" stroke="rgb(115, 161, 191)" stroke-width="1" d="M12.500005148351192,557.4999995604157V806.4999995604157L32.50000514835119,806.4999995604157" display="none"></path><path id="kity_path_967" fill="none" stroke="rgb(115, 161, 191)" stroke-width="1" d="M12.500005148351192,557.4999995604157V858.4999995604157L32.50000514835119,858.4999995604157" display="none"></path><path id="kity_path_975" fill="none" stroke="rgb(115, 161, 191)" stroke-width="1" d="M12.500005148351192,557.4999995604157V910.4999995604157L32.50000514835119,910.4999995604157" display="none"></path><path id="kity_path_983" fill="none" stroke="rgb(115, 161, 191)" stroke-width="1" d="M80.50000514835119,609.4999995604157V650.4999995604157L100.50000514835119,650.4999995604157" display="none"></path><path id="kity_path_991" fill="none" stroke="rgb(115, 161, 191)" stroke-width="1" d="M80.50000514835119,661.4999995604157V702.4999995604157L100.50000514835119,702.4999995604157" display="none"></path><path id="kity_path_999" fill="none" stroke="rgb(115, 161, 191)" stroke-width="1" d="M80.50000514835119,661.4999995604157V754.4999995604157L100.50000514835119,754.4999995604157" display="none"></path><path id="kity_path_1007" fill="none" stroke="rgb(115, 161, 191)" stroke-width="1" d="M80.50000514835119,661.4999995604157V806.4999995604157L100.50000514835119,806.4999995604157" display="none"></path><path id="kity_path_1015" fill="none" stroke="rgb(115, 161, 191)" stroke-width="1" d="M80.50000514835119,661.4999995604157V858.4999995604157L100.50000514835119,858.4999995604157" display="none"></path></g><g id="minder_node1"><path id="node_outline1" fill="rgb(115, 161, 191)" stroke="rgb(115, 161, 191)" d="M227.5000051483512,20.499999560415745h135a5,5,0,0,1,5,5v30a5,5,0,0,1,-5,5h-135a5,5,0,0,1,-5,-5v-30a5,5,0,0,1,5,-5z" stroke-width="3"></path><g id="node_text1" fill="white"><text id="kity_text_22" text-rendering="inherit" font-size="16" dy=".8em" y="30.099999524652958" x="246.5000051483512">自然语言处理</text></g></g><g id="kity_g_14" display="none"><path id="kity_path_15" fill="rgba(0, 92, 153, 0.5)" stroke="none" d="M54.50000514835119,2389.4999995604157h106v15h-106z"></path><path id="kity_path_16" fill="none" stroke="rgb(0, 76, 128)" d="M54.50000514835119,2404.4999995604157L160.5000051483512,2404.4999995604157" stroke-width="1"></path></g><g id="minder_node2"><g id="node_expander1" style="cursor: pointer;"><path id="kity_path_36" fill="white" stroke="gray" d="M61.000002294778824,103.5000004991889A6,6,0,1,1,49.000002294778824,103.5000004991889A6,6,0,1,1,61.000002294778824,103.5000004991889"></path><path id="kity_path_37" fill="none" stroke="gray" d="M50.500002294778824,103.5000004991889L59.500002294778824,103.5000004991889"></path></g><path id="node_outline2" fill="rgb(238, 243, 246)" stroke="rgb(115, 161, 191)" d="M23.500002078711987,110.50000079721212h63a3,3,0,0,1,3,3v20a3,3,0,0,1,-3,3h-63a3,3,0,0,1,-3,-3v-20a3,3,0,0,1,3,-3z" stroke-width="1"></path><g id="node_text2" fill="black"><text id="kity_text_33" text-rendering="inherit" font-size="14" dy=".8em" y="114.40000076591969" x="40.50000207871199">前沿</text></g></g><g id="minder_node3"><g id="node_expander2" style="cursor: pointer;"><path id="kity_path_44" fill="white" stroke="gray" d="M266.00000534951687,103.5000004991889A6,6,0,1,1,254.00000534951687,103.5000004991889A6,6,0,1,1,266.00000534951687,103.5000004991889"></path><path id="kity_path_45" fill="none" stroke="gray" d="M255.50000534951687,103.5000004991889L264.50000534951687,103.5000004991889"></path></g><path id="node_outline3" fill="rgb(238, 243, 246)" stroke="rgb(115, 161, 191)" d="M228.50000513345003,110.50000079721212h63a3,3,0,0,1,3,3v20a3,3,0,0,1,-3,3h-63a3,3,0,0,1,-3,-3v-20a3,3,0,0,1,3,-3z" stroke-width="1"></path><g id="node_text3" fill="black"><text id="kity_text_41" text-rendering="inherit" font-size="14" dy=".8em" y="114.40000076591969" x="245.50000513345003">经典</text></g></g><g id="minder_node4"><g id="node_expander3" style="cursor: pointer;"><path id="kity_path_52" fill="white" stroke="gray" d="M60.50000228732824,182.50000167638063A6,6,0,1,1,48.50000228732824,182.50000167638063A6,6,0,1,1,60.50000228732824,182.50000167638063"></path><path id="kity_path_53" fill="none" stroke="gray" d="M50.00000228732824,182.50000167638063L59.00000228732824,182.50000167638063M54.50000228732824,178.00000167638063L54.50000228732824,187.00000167638063"></path></g><path id="node_outline4" fill="none" stroke="none" d="M65.50000252574682,171.50000167638063h67a5,5,0,0,1,5,5v12a5,5,0,0,1,-5,5h-67a5,5,0,0,1,-5,-5v-12a5,5,0,0,1,5,-5z" stroke-width="3"></path><g id="node_text4" fill="black"><text id="kity_text_49" text-rendering="inherit" font-size="12" dy=".8em" y="174.70000164955854" x="70.50000252574682">word2vec</text></g></g><g id="minder_node5"><g id="node_expander4" style="cursor: pointer;"><path id="kity_path_60" fill="white" stroke="gray" d="M60.50000228732824,286.5000032261014A6,6,0,1,1,48.50000228732824,286.5000032261014A6,6,0,1,1,60.50000228732824,286.5000032261014"></path><path id="kity_path_61" fill="none" stroke="gray" d="M50.00000228732824,286.5000032261014L59.00000228732824,286.5000032261014M54.50000228732824,282.0000032261014L54.50000228732824,291.0000032261014"></path></g><path id="node_outline5" fill="none" stroke="none" d="M65.50000252574682,275.5000032261014h38a5,5,0,0,1,5,5v12a5,5,0,0,1,-5,5h-38a5,5,0,0,1,-5,-5v-12a5,5,0,0,1,5,-5z" stroke-width="3"></path><g id="node_text5" fill="black"><text id="kity_text_57" text-rendering="inherit" font-size="12" dy=".8em" y="278.7000031992793" x="70.50000252574682">CNN</text></g></g><g id="minder_node6"><g id="node_expander5" style="cursor: pointer;"><path id="kity_path_68" fill="white" stroke="gray" d="M60.50000228732824,338.5000040009618A6,6,0,1,1,48.50000228732824,338.5000040009618A6,6,0,1,1,60.50000228732824,338.5000040009618"></path><path id="kity_path_69" fill="none" stroke="gray" d="M50.00000228732824,338.5000040009618L59.00000228732824,338.5000040009618M54.50000228732824,334.0000040009618L54.50000228732824,343.0000040009618"></path></g><path id="node_outline6" fill="none" stroke="none" d="M65.50000252574682,327.5000040009618h36a5,5,0,0,1,5,5v12a5,5,0,0,1,-5,5h-36a5,5,0,0,1,-5,-5v-12a5,5,0,0,1,5,-5z" stroke-width="3"></path><g id="node_text6" fill="black"><text id="kity_text_65" text-rendering="inherit" font-size="12" dy=".8em" y="330.7000039741397" x="70.50000252574682">GRU</text></g></g><g id="minder_node7"><g id="node_expander6" style="cursor: pointer;"><path id="kity_path_76" fill="white" stroke="gray" d="M60.50000228732824,390.50000477582216A6,6,0,1,1,48.50000228732824,390.50000477582216A6,6,0,1,1,60.50000228732824,390.50000477582216"></path><path id="kity_path_77" fill="none" stroke="gray" d="M50.00000228732824,390.50000477582216L59.00000228732824,390.50000477582216M54.50000228732824,386.00000477582216L54.50000228732824,395.00000477582216"></path></g><path id="node_outline7" fill="none" stroke="none" d="M65.50000252574682,379.50000477582216h37a5,5,0,0,1,5,5v12a5,5,0,0,1,-5,5h-37a5,5,0,0,1,-5,-5v-12a5,5,0,0,1,5,-5z" stroke-width="3"></path><g id="node_text7" fill="black"><text id="kity_text_73" text-rendering="inherit" font-size="12" dy=".8em" y="382.7000047490001" x="70.50000252574682">RNN</text></g></g><g id="minder_node8" opacity="1"><g id="node_expander7" style="cursor: pointer;"><path id="kity_path_84" fill="white" stroke="gray" d="M60.50000228732824,442.50000555068254A6,6,0,1,1,48.50000228732824,442.50000555068254A6,6,0,1,1,60.50000228732824,442.50000555068254"></path><path id="kity_path_85" fill="none" stroke="gray" d="M50.00000228732824,442.50000555068254L59.00000228732824,442.50000555068254M54.50000228732824,438.00000555068254L54.50000228732824,447.00000555068254"></path></g><path id="node_outline8" fill="none" stroke="none" d="M65.50000252574682,431.50000555068254h42a5,5,0,0,1,5,5v12a5,5,0,0,1,-5,5h-42a5,5,0,0,1,-5,-5v-12a5,5,0,0,1,5,-5z" stroke-width="3"></path><g id="node_text8" fill="black"><text id="kity_text_81" text-rendering="inherit" font-size="12" dy=".8em" y="434.70000552386045" x="70.50000252574682">LSTM</text></g></g><g id="minder_node17"><g id="node_expander16" style="cursor: pointer;"><path id="kity_path_156" fill="white" stroke="gray" d="M392.0000072270632,103.5000004991889A6,6,0,1,1,380.0000072270632,103.5000004991889A6,6,0,1,1,392.0000072270632,103.5000004991889"></path><path id="kity_path_157" fill="none" stroke="gray" d="M381.5000072270632,103.5000004991889L390.5000072270632,103.5000004991889"></path></g><path id="node_outline17" fill="rgb(238, 243, 246)" stroke="rgb(115, 161, 191)" d="M354.50000701099634,110.50000079721212h63a3,3,0,0,1,3,3v20a3,3,0,0,1,-3,3h-63a3,3,0,0,1,-3,-3v-20a3,3,0,0,1,3,-3z" stroke-width="1"></path><g id="node_text17" fill="black"><text id="kity_text_153" text-rendering="inherit" font-size="14" dy=".8em" y="114.40000076591969" x="371.50000701099634">场景</text></g></g><g id="minder_node18"><g id="node_expander17" style="cursor: pointer;" display="none"><path id="kity_path_164" fill="white" stroke="gray" d="M391.5000072196126,182.50000167638063A6,6,0,1,1,379.5000072196126,182.50000167638063A6,6,0,1,1,391.5000072196126,182.50000167638063"></path><path id="kity_path_165" fill="none" stroke="gray"></path></g><path id="node_outline18" fill="none" stroke="none" d="M396.5000074580312,171.50000167638063h59a5,5,0,0,1,5,5v12a5,5,0,0,1,-5,5h-59a5,5,0,0,1,-5,-5v-12a5,5,0,0,1,5,-5z" stroke-width="3"></path><g id="node_text18" fill="black"><text id="kity_text_161" text-rendering="inherit" font-size="12" dy=".8em" y="174.70000164955854" x="401.5000074580312">自动摘要</text></g></g><g id="minder_node19"><g id="node_expander18" style="cursor: pointer;" display="none"><path id="kity_path_172" fill="white" stroke="gray" d="M391.5000072196126,234.50000245124102A6,6,0,1,1,379.5000072196126,234.50000245124102A6,6,0,1,1,391.5000072196126,234.50000245124102"></path><path id="kity_path_173" fill="none" stroke="gray"></path></g><path id="node_outline19" fill="none" stroke="none" d="M396.5000074580312,223.50000245124102h60a5,5,0,0,1,5,5v12a5,5,0,0,1,-5,5h-60a5,5,0,0,1,-5,-5v-12a5,5,0,0,1,5,-5z" stroke-width="3"></path><g id="node_text19" fill="black"><text id="kity_text_169" text-rendering="inherit" font-size="12" dy=".8em" y="226.70000242441893" x="401.5000074580312">情感分析</text></g></g><g id="minder_node20"><g id="node_expander19" style="cursor: pointer;" display="none"><path id="kity_path_180" fill="white" stroke="gray" d="M391.5000072196126,286.5000032261014A6,6,0,1,1,379.5000072196126,286.5000032261014A6,6,0,1,1,391.5000072196126,286.5000032261014"></path><path id="kity_path_181" fill="none" stroke="gray"></path></g><path id="node_outline20" fill="none" stroke="none" d="M396.5000074580312,275.5000032261014h60a5,5,0,0,1,5,5v12a5,5,0,0,1,-5,5h-60a5,5,0,0,1,-5,-5v-12a5,5,0,0,1,5,-5z" stroke-width="3"></path><g id="node_text20" fill="black"><text id="kity_text_177" text-rendering="inherit" font-size="12" dy=".8em" y="278.7000031992793" x="401.5000074580312">文本分类</text></g></g><g id="minder_node21"><g id="node_expander20" style="cursor: pointer;" display="none"><path id="kity_path_188" fill="white" stroke="gray" d="M391.5000072196126,338.5000040009618A6,6,0,1,1,379.5000072196126,338.5000040009618A6,6,0,1,1,391.5000072196126,338.5000040009618"></path><path id="kity_path_189" fill="none" stroke="gray"></path></g><path id="node_outline21" fill="none" stroke="none" d="M396.5000074580312,327.5000040009618h60a5,5,0,0,1,5,5v12a5,5,0,0,1,-5,5h-60a5,5,0,0,1,-5,-5v-12a5,5,0,0,1,5,-5z" stroke-width="3"></path><g id="node_text21" fill="black"><text id="kity_text_185" text-rendering="inherit" font-size="12" dy=".8em" y="330.7000039741397" x="401.5000074580312">信息提取</text></g></g><g id="minder_node22"><g id="node_expander21" style="cursor: pointer;"><path id="kity_path_196" fill="white" stroke="gray" d="M542.0000094622374,103.5000004991889A6,6,0,1,1,530.0000094622374,103.5000004991889A6,6,0,1,1,542.0000094622374,103.5000004991889"></path><path id="kity_path_197" fill="none" stroke="gray" d="M531.5000094622374,103.5000004991889L540.5000094622374,103.5000004991889"></path></g><path id="node_outline22" fill="rgb(238, 243, 246)" stroke="rgb(115, 161, 191)" d="M504.5000092461705,110.50000079721212h63a3,3,0,0,1,3,3v20a3,3,0,0,1,-3,3h-63a3,3,0,0,1,-3,-3v-20a3,3,0,0,1,3,-3z" stroke-width="1"></path><g id="node_text22" fill="black"><text id="kity_text_193" text-rendering="inherit" font-size="14" dy=".8em" y="114.40000076591969" x="521.5000092461705">应用</text></g></g><g id="minder_node24"><g id="node_expander23" style="cursor: pointer;" display="none"><path id="kity_path_212" fill="white" stroke="gray" d="M541.5000094547868,182.50000167638063A6,6,0,1,1,529.5000094547868,182.50000167638063A6,6,0,1,1,541.5000094547868,182.50000167638063"></path><path id="kity_path_213" fill="none" stroke="gray"></path></g><path id="node_outline24" fill="none" stroke="none" d="M546.5000096932054,171.50000167638063h83a5,5,0,0,1,5,5v12a5,5,0,0,1,-5,5h-83a5,5,0,0,1,-5,-5v-12a5,5,0,0,1,5,-5z" stroke-width="3"></path><g id="node_text24" fill="black"><text id="kity_text_209" text-rendering="inherit" font-size="12" dy=".8em" y="174.70000164955854" x="551.5000096932054">自动论文评分</text></g></g><g id="minder_node25"><g id="node_expander24" style="cursor: pointer;" display="none"><path id="kity_path_220" fill="white" stroke="gray" d="M541.5000094547868,234.50000245124102A6,6,0,1,1,529.5000094547868,234.50000245124102A6,6,0,1,1,541.5000094547868,234.50000245124102"></path><path id="kity_path_221" fill="none" stroke="gray"></path></g><path id="node_outline25" fill="none" stroke="none" d="M546.5000096932054,223.50000245124102h107a5,5,0,0,1,5,5v12a5,5,0,0,1,-5,5h-107a5,5,0,0,1,-5,-5v-12a5,5,0,0,1,5,-5z" stroke-width="3"></path><g id="node_text25" fill="black"><text id="kity_text_217" text-rendering="inherit" font-size="12" dy=".8em" y="226.70000242441893" x="551.5000096932054">生物医学文本挖掘</text></g></g><g id="minder_node26"><g id="node_expander25" style="cursor: pointer;" display="none"><path id="kity_path_228" fill="white" stroke="gray" d="M541.5000094547868,286.5000032261014A6,6,0,1,1,529.5000094547868,286.5000032261014A6,6,0,1,1,541.5000094547868,286.5000032261014"></path><path id="kity_path_229" fill="none" stroke="gray"></path></g><path id="node_outline26" fill="none" stroke="none" d="M546.5000096932054,275.5000032261014h60a5,5,0,0,1,5,5v12a5,5,0,0,1,-5,5h-60a5,5,0,0,1,-5,-5v-12a5,5,0,0,1,5,-5z" stroke-width="3"></path><g id="node_text26" fill="black"><text id="kity_text_225" text-rendering="inherit" font-size="12" dy=".8em" y="278.7000031992793" x="551.5000096932054">搜索引擎</text></g></g><g id="minder_node27"><g id="node_expander26" style="cursor: pointer;" display="none"><path id="kity_path_236" fill="white" stroke="gray" d="M541.5000094547868,338.5000040009618A6,6,0,1,1,529.5000094547868,338.5000040009618A6,6,0,1,1,541.5000094547868,338.5000040009618"></path><path id="kity_path_237" fill="none" stroke="gray"></path></g><path id="node_outline27" fill="none" stroke="none" d="M546.5000096932054,327.5000040009618h59a5,5,0,0,1,5,5v12a5,5,0,0,1,-5,5h-59a5,5,0,0,1,-5,-5v-12a5,5,0,0,1,5,-5z" stroke-width="3"></path><g id="node_text27" fill="black"><text id="kity_text_233" text-rendering="inherit" font-size="12" dy=".8em" y="330.7000039741397" x="551.5000096932054">写作辅助</text></g></g><g id="minder_node31"><g id="node_expander30" style="cursor: pointer;"><path id="kity_path_268" fill="white" stroke="gray" d="M265.5000053420663,182.50000167638063A6,6,0,1,1,253.5000053420663,182.50000167638063A6,6,0,1,1,265.5000053420663,182.50000167638063"></path><path id="kity_path_269" fill="none" stroke="gray" d="M255.0000053420663,182.50000167638063L264.0000053420663,182.50000167638063M259.5000053420663,178.00000167638063L259.5000053420663,187.00000167638063"></path></g><path id="node_outline31" fill="none" stroke="none" d="M270.50000558048487,171.50000167638063h36a5,5,0,0,1,5,5v12a5,5,0,0,1,-5,5h-36a5,5,0,0,1,-5,-5v-12a5,5,0,0,1,5,-5z" stroke-width="3"></path><g id="node_text31" fill="black"><text id="kity_text_265" text-rendering="inherit" font-size="12" dy=".8em" y="174.70000164955854" x="275.50000558048487">语法</text></g></g><g id="minder_node32" display="none"><g id="node_expander31" style="cursor: pointer;" display="none"><path id="kity_path_276" fill="white" stroke="gray" d="M305.50000593811274,223.50000228732824A6,6,0,1,1,293.50000593811274,223.50000228732824A6,6,0,1,1,305.50000593811274,223.50000228732824"></path><path id="kity_path_277" fill="none" stroke="gray"></path></g><path id="node_outline32" fill="none" stroke="none" d="M300.5000060275197,212.50000228732824h60a5,5,0,0,1,5,5v12a5,5,0,0,1,-5,5h-60a5,5,0,0,1,-5,-5v-12a5,5,0,0,1,5,-5z" stroke-width="3"></path><g id="node_text32" fill="black"><text id="kity_text_273" text-rendering="inherit" font-size="12" dy=".8em" y="215.70000226050615" x="305.5000060275197">语法推理</text></g></g><g id="minder_node33" display="none"><g id="node_expander32" style="cursor: pointer;" display="none"><path id="kity_path_284" fill="white" stroke="gray" d="M305.50000593811274,253.50000273436308A6,6,0,1,1,293.50000593811274,253.50000273436308A6,6,0,1,1,305.50000593811274,253.50000273436308"></path><path id="kity_path_285" fill="none" stroke="gray"></path></g><path id="node_outline33" fill="none" stroke="none" d="M300.5000060275197,242.50000273436308h60a5,5,0,0,1,5,5v12a5,5,0,0,1,-5,5h-60a5,5,0,0,1,-5,-5v-12a5,5,0,0,1,5,-5z" stroke-width="3"></path><g id="node_text33" fill="black"><text id="kity_text_281" text-rendering="inherit" font-size="12" dy=".8em" y="245.700002707541" x="305.5000060275197">词形还原</text></g></g><g id="minder_node34" display="none"><g id="node_expander33" style="cursor: pointer;" display="none"><path id="kity_path_292" fill="white" stroke="gray" d="M305.50000593811274,283.5000031813979A6,6,0,1,1,293.50000593811274,283.5000031813979A6,6,0,1,1,305.50000593811274,283.5000031813979"></path><path id="kity_path_293" fill="none" stroke="gray"></path></g><path id="node_outline34" fill="none" stroke="none" d="M300.5000060275197,272.5000031813979h71a5,5,0,0,1,5,5v12a5,5,0,0,1,-5,5h-71a5,5,0,0,1,-5,-5v-12a5,5,0,0,1,5,-5z" stroke-width="3"></path><g id="node_text34" fill="black"><text id="kity_text_289" text-rendering="inherit" font-size="12" dy=".8em" y="275.7000031545758" x="305.5000060275197">形态学分割</text></g></g><g id="minder_node35" display="none"><g id="node_expander34" style="cursor: pointer;" display="none"><path id="kity_path_300" fill="white" stroke="gray" d="M305.50000593811274,313.50000362843275A6,6,0,1,1,293.50000593811274,313.50000362843275A6,6,0,1,1,305.50000593811274,313.50000362843275"></path><path id="kity_path_301" fill="none" stroke="gray"></path></g><path id="node_outline35" fill="none" stroke="none" d="M300.5000060275197,302.50000362843275h60a5,5,0,0,1,5,5v12a5,5,0,0,1,-5,5h-60a5,5,0,0,1,-5,-5v-12a5,5,0,0,1,5,-5z" stroke-width="3"></path><g id="node_text35" fill="black"><text id="kity_text_297" text-rendering="inherit" font-size="12" dy=".8em" y="305.70000360161066" x="305.5000060275197">词性标注</text></g></g><g id="minder_node36" display="none"><g id="node_expander35" style="cursor: pointer;" display="none"><path id="kity_path_308" fill="white" stroke="gray" d="M305.50000593811274,343.5000040754676A6,6,0,1,1,293.50000593811274,343.5000040754676A6,6,0,1,1,305.50000593811274,343.5000040754676"></path><path id="kity_path_309" fill="none" stroke="gray"></path></g><path id="node_outline36" fill="none" stroke="none" d="M300.5000060275197,332.5000040754676h60a5,5,0,0,1,5,5v12a5,5,0,0,1,-5,5h-60a5,5,0,0,1,-5,-5v-12a5,5,0,0,1,5,-5z" stroke-width="3"></path><g id="node_text36" fill="black"><text id="kity_text_305" text-rendering="inherit" font-size="12" dy=".8em" y="335.7000040486455" x="305.5000060275197">语法分析</text></g></g><g id="minder_node37" display="none"><g id="node_expander36" style="cursor: pointer;" display="none"><path id="kity_path_316" fill="white" stroke="gray" d="M305.50000593811274,373.5000045225024A6,6,0,1,1,293.50000593811274,373.5000045225024A6,6,0,1,1,305.50000593811274,373.5000045225024"></path><path id="kity_path_317" fill="none" stroke="gray"></path></g><path id="node_outline37" fill="none" stroke="none" d="M300.5000060275197,362.5000045225024h60a5,5,0,0,1,5,5v12a5,5,0,0,1,-5,5h-60a5,5,0,0,1,-5,-5v-12a5,5,0,0,1,5,-5z" stroke-width="3"></path><g id="node_text37" fill="black"><text id="kity_text_313" text-rendering="inherit" font-size="12" dy=".8em" y="365.70000449568033" x="305.5000060275197">边界标记</text></g></g><g id="minder_node38" display="none"><g id="node_expander37" style="cursor: pointer;" display="none"><path id="kity_path_324" fill="white" stroke="gray" d="M305.50000593811274,403.50000496953726A6,6,0,1,1,293.50000593811274,403.50000496953726A6,6,0,1,1,305.50000593811274,403.50000496953726"></path><path id="kity_path_325" fill="none" stroke="gray"></path></g><path id="node_outline38" fill="none" stroke="none" d="M300.5000060275197,392.50000496953726h48a5,5,0,0,1,5,5v12a5,5,0,0,1,-5,5h-48a5,5,0,0,1,-5,-5v-12a5,5,0,0,1,5,-5z" stroke-width="3"></path><g id="node_text38" fill="black"><text id="kity_text_321" text-rendering="inherit" font-size="12" dy=".8em" y="395.70000494271517" x="305.5000060275197">词干化</text></g></g><g id="minder_node39" display="none"><g id="node_expander38" style="cursor: pointer;" display="none"><path id="kity_path_332" fill="white" stroke="gray" d="M305.50000593811274,433.5000054165721A6,6,0,1,1,293.50000593811274,433.5000054165721A6,6,0,1,1,305.50000593811274,433.5000054165721"></path><path id="kity_path_333" fill="none" stroke="gray"></path></g><path id="node_outline39" fill="none" stroke="none" d="M300.5000060275197,422.5000054165721h35a5,5,0,0,1,5,5v12a5,5,0,0,1,-5,5h-35a5,5,0,0,1,-5,-5v-12a5,5,0,0,1,5,-5z" stroke-width="3"></path><g id="node_text39" fill="black"><text id="kity_text_329" text-rendering="inherit" font-size="12" dy=".8em" y="425.70000538975" x="305.5000060275197">分词</text></g></g><g id="minder_node40" display="none"><g id="node_expander39" style="cursor: pointer;" display="none"><path id="kity_path_340" fill="white" stroke="gray" d="M305.50000593811274,463.50000586360693A6,6,0,1,1,293.50000593811274,463.50000586360693A6,6,0,1,1,305.50000593811274,463.50000586360693"></path><path id="kity_path_341" fill="none" stroke="gray"></path></g><path id="node_outline40" fill="none" stroke="none" d="M300.5000060275197,452.50000586360693h60a5,5,0,0,1,5,5v12a5,5,0,0,1,-5,5h-60a5,5,0,0,1,-5,-5v-12a5,5,0,0,1,5,-5z" stroke-width="3"></path><g id="node_text40" fill="black"><text id="kity_text_337" text-rendering="inherit" font-size="12" dy=".8em" y="455.70000583678484" x="305.5000060275197">术语提取</text></g></g><g id="minder_node41"><g id="node_expander40" style="cursor: pointer;"><path id="kity_path_348" fill="white" stroke="gray" d="M265.5000053420663,234.50000245124102A6,6,0,1,1,253.5000053420663,234.50000245124102A6,6,0,1,1,265.5000053420663,234.50000245124102"></path><path id="kity_path_349" fill="none" stroke="gray" d="M255.0000053420663,234.50000245124102L264.0000053420663,234.50000245124102M259.5000053420663,230.00000245124102L259.5000053420663,239.00000245124102"></path></g><path id="node_outline41" fill="none" stroke="none" d="M270.50000558048487,223.50000245124102h36a5,5,0,0,1,5,5v12a5,5,0,0,1,-5,5h-36a5,5,0,0,1,-5,-5v-12a5,5,0,0,1,5,-5z" stroke-width="3"></path><g id="node_text41" fill="black"><text id="kity_text_345" text-rendering="inherit" font-size="12" dy=".8em" y="226.70000242441893" x="275.50000558048487">语义</text></g></g><g id="minder_node42" display="none"><g id="node_expander41" style="cursor: pointer;" display="none"><path id="kity_path_356" fill="white" stroke="gray" d="M305.50000593811274,275.5000030621886A6,6,0,1,1,293.50000593811274,275.5000030621886A6,6,0,1,1,305.50000593811274,275.5000030621886"></path><path id="kity_path_357" fill="none" stroke="gray"></path></g><path id="node_outline42" fill="none" stroke="none" d="M300.5000060275197,264.5000030621886h60a5,5,0,0,1,5,5v12a5,5,0,0,1,-5,5h-60a5,5,0,0,1,-5,-5v-12a5,5,0,0,1,5,-5z" stroke-width="3"></path><g id="node_text42" fill="black"><text id="kity_text_353" text-rendering="inherit" font-size="12" dy=".8em" y="267.70000303536654" x="305.5000060275197">词汇语义</text></g></g><g id="minder_node43" display="none"><g id="node_expander42" style="cursor: pointer;" display="none"><path id="kity_path_364" fill="white" stroke="gray" d="M305.50000593811274,305.50000350922346A6,6,0,1,1,293.50000593811274,305.50000350922346A6,6,0,1,1,305.50000593811274,305.50000350922346"></path><path id="kity_path_365" fill="none" stroke="gray"></path></g><path id="node_outline43" fill="none" stroke="none" d="M300.5000060275197,294.50000350922346h60a5,5,0,0,1,5,5v12a5,5,0,0,1,-5,5h-60a5,5,0,0,1,-5,-5v-12a5,5,0,0,1,5,-5z" stroke-width="3"></path><g id="node_text43" fill="black"><text id="kity_text_361" text-rendering="inherit" font-size="12" dy=".8em" y="297.70000348240137" x="305.5000060275197">机器翻译</text></g></g><g id="minder_node44" display="none"><g id="node_expander43" style="cursor: pointer;" display="none"><path id="kity_path_372" fill="white" stroke="gray" d="M305.50000593811274,335.5000039562583A6,6,0,1,1,293.50000593811274,335.5000039562583A6,6,0,1,1,305.50000593811274,335.5000039562583"></path><path id="kity_path_373" fill="none" stroke="gray"></path></g><path id="node_outline44" fill="none" stroke="none" d="M300.5000060275197,324.5000039562583h83a5,5,0,0,1,5,5v12a5,5,0,0,1,-5,5h-83a5,5,0,0,1,-5,-5v-12a5,5,0,0,1,5,-5z" stroke-width="3"></path><g id="node_text44" fill="black"><text id="kity_text_369" text-rendering="inherit" font-size="12" dy=".8em" y="327.7000039294362" x="305.5000060275197">命名实体识别</text></g></g><g id="minder_node45" display="none"><g id="node_expander44" style="cursor: pointer;" display="none"><path id="kity_path_380" fill="white" stroke="gray" d="M305.50000593811274,365.50000440329313A6,6,0,1,1,293.50000593811274,365.50000440329313A6,6,0,1,1,305.50000593811274,365.50000440329313"></path><path id="kity_path_381" fill="none" stroke="gray"></path></g><path id="node_outline45" fill="none" stroke="none" d="M300.5000060275197,354.50000440329313h83a5,5,0,0,1,5,5v12a5,5,0,0,1,-5,5h-83a5,5,0,0,1,-5,-5v-12a5,5,0,0,1,5,-5z" stroke-width="3"></path><g id="node_text45" fill="black"><text id="kity_text_377" text-rendering="inherit" font-size="12" dy=".8em" y="357.70000437647104" x="305.5000060275197">自然语言生成</text></g></g><g id="minder_node46" display="none"><g id="node_expander45" style="cursor: pointer;" display="none"><path id="kity_path_388" fill="white" stroke="gray" d="M305.50000593811274,395.50000485032797A6,6,0,1,1,293.50000593811274,395.50000485032797A6,6,0,1,1,305.50000593811274,395.50000485032797"></path><path id="kity_path_389" fill="none" stroke="gray"></path></g><path id="node_outline46" fill="none" stroke="none" d="M300.5000060275197,384.50000485032797h83a5,5,0,0,1,5,5v12a5,5,0,0,1,-5,5h-83a5,5,0,0,1,-5,-5v-12a5,5,0,0,1,5,-5z" stroke-width="3"></path><g id="node_text46" fill="black"><text id="kity_text_385" text-rendering="inherit" font-size="12" dy=".8em" y="387.7000048235059" x="305.5000060275197">自然语言理解</text></g></g><g id="minder_node47" display="none"><g id="node_expander46" style="cursor: pointer;" display="none"><path id="kity_path_396" fill="white" stroke="gray" d="M305.50000593811274,425.5000052973628A6,6,0,1,1,293.50000593811274,425.5000052973628A6,6,0,1,1,305.50000593811274,425.5000052973628"></path><path id="kity_path_397" fill="none" stroke="gray"></path></g><path id="node_outline47" fill="none" stroke="none" d="M300.5000060275197,414.5000052973628h83a5,5,0,0,1,5,5v12a5,5,0,0,1,-5,5h-83a5,5,0,0,1,-5,-5v-12a5,5,0,0,1,5,-5z" stroke-width="3"></path><g id="node_text47" fill="black"><text id="kity_text_393" text-rendering="inherit" font-size="12" dy=".8em" y="417.7000052705407" x="305.5000060275197">光学字符识别</text></g></g><g id="minder_node48" display="none"><g id="node_expander47" style="cursor: pointer;" display="none"><path id="kity_path_404" fill="white" stroke="gray" d="M305.50000593811274,455.50000574439764A6,6,0,1,1,293.50000593811274,455.50000574439764A6,6,0,1,1,305.50000593811274,455.50000574439764"></path><path id="kity_path_405" fill="none" stroke="gray"></path></g><path id="node_outline48" fill="none" stroke="none" d="M300.5000060275197,444.50000574439764h59a5,5,0,0,1,5,5v12a5,5,0,0,1,-5,5h-59a5,5,0,0,1,-5,-5v-12a5,5,0,0,1,5,-5z" stroke-width="3"></path><g id="node_text48" fill="black"><text id="kity_text_401" text-rendering="inherit" font-size="12" dy=".8em" y="447.70000571757555" x="305.5000060275197">问答系统</text></g></g><g id="minder_node49" display="none"><g id="node_expander48" style="cursor: pointer;" display="none"><path id="kity_path_412" fill="white" stroke="gray" d="M305.50000593811274,485.5000061914325A6,6,0,1,1,293.50000593811274,485.5000061914325A6,6,0,1,1,305.50000593811274,485.5000061914325"></path><path id="kity_path_413" fill="none" stroke="gray"></path></g><path id="node_outline49" fill="none" stroke="none" d="M300.5000060275197,474.5000061914325h59a5,5,0,0,1,5,5v12a5,5,0,0,1,-5,5h-59a5,5,0,0,1,-5,-5v-12a5,5,0,0,1,5,-5z" stroke-width="3"></path><g id="node_text49" fill="black"><text id="kity_text_409" text-rendering="inherit" font-size="12" dy=".8em" y="477.7000061646104" x="305.5000060275197">文本蕴涵</text></g></g><g id="minder_node50" display="none"><g id="node_expander49" style="cursor: pointer;" display="none"><path id="kity_path_420" fill="white" stroke="gray" d="M305.50000593811274,515.5000066384673A6,6,0,1,1,293.50000593811274,515.5000066384673A6,6,0,1,1,305.50000593811274,515.5000066384673"></path><path id="kity_path_421" fill="none" stroke="gray"></path></g><path id="node_outline50" fill="none" stroke="none" d="M300.5000060275197,504.5000066384673h60a5,5,0,0,1,5,5v12a5,5,0,0,1,-5,5h-60a5,5,0,0,1,-5,-5v-12a5,5,0,0,1,5,-5z" stroke-width="3"></path><g id="node_text50" fill="black"><text id="kity_text_417" text-rendering="inherit" font-size="12" dy=".8em" y="507.7000066116452" x="305.5000060275197">关系提取</text></g></g><g id="minder_node51" display="none"><g id="node_expander50" style="cursor: pointer;" display="none"><path id="kity_path_428" fill="white" stroke="gray" d="M305.50000593811274,545.5000070855021A6,6,0,1,1,293.50000593811274,545.5000070855021A6,6,0,1,1,305.50000593811274,545.5000070855021"></path><path id="kity_path_429" fill="none" stroke="gray"></path></g><path id="node_outline51" fill="none" stroke="none" d="M300.5000060275197,534.5000070855021h60a5,5,0,0,1,5,5v12a5,5,0,0,1,-5,5h-60a5,5,0,0,1,-5,-5v-12a5,5,0,0,1,5,-5z" stroke-width="3"></path><g id="node_text51" fill="black"><text id="kity_text_425" text-rendering="inherit" font-size="12" dy=".8em" y="537.7000070586801" x="305.5000060275197">情绪分析</text></g></g><g id="minder_node52" opacity="1" display="none"><g id="node_expander51" style="cursor: pointer;" display="none"><path id="kity_path_436" fill="white" stroke="gray" d="M305.50000593811274,575.500007532537A6,6,0,1,1,293.50000593811274,575.500007532537A6,6,0,1,1,305.50000593811274,575.500007532537"></path><path id="kity_path_437" fill="none" stroke="gray"></path></g><path id="node_outline52" fill="none" stroke="none" d="M300.5000060275197,564.500007532537h59a5,5,0,0,1,5,5v12a5,5,0,0,1,-5,5h-59a5,5,0,0,1,-5,-5v-12a5,5,0,0,1,5,-5z" stroke-width="3"></path><g id="node_text52" fill="black"><text id="kity_text_433" text-rendering="inherit" font-size="12" dy=".8em" y="567.7000075057149" x="305.5000060275197">文本分割</text></g></g><g id="minder_node53" display="none"><g id="node_expander52" style="cursor: pointer;" display="none"><path id="kity_path_444" fill="white" stroke="gray" d="M305.50000593811274,605.5000079795718A6,6,0,1,1,293.50000593811274,605.5000079795718A6,6,0,1,1,305.50000593811274,605.5000079795718"></path><path id="kity_path_445" fill="none" stroke="gray"></path></g><path id="node_outline53" fill="none" stroke="none" d="M300.5000060275197,594.5000079795718h60a5,5,0,0,1,5,5v12a5,5,0,0,1,-5,5h-60a5,5,0,0,1,-5,-5v-12a5,5,0,0,1,5,-5z" stroke-width="3"></path><g id="node_text53" fill="black"><text id="kity_text_441" text-rendering="inherit" font-size="12" dy=".8em" y="597.7000079527497" x="305.5000060275197">语义消歧</text></g></g><g id="minder_node55"><g id="node_expander54" style="cursor: pointer;"><path id="kity_path_460" fill="white" stroke="gray" d="M265.5000053420663,286.5000032261014A6,6,0,1,1,253.5000053420663,286.5000032261014A6,6,0,1,1,265.5000053420663,286.5000032261014"></path><path id="kity_path_461" fill="none" stroke="gray" d="M255.0000053420663,286.5000032261014L264.0000053420663,286.5000032261014M259.5000053420663,282.0000032261014L259.5000053420663,291.0000032261014"></path></g><path id="node_outline55" fill="none" stroke="none" d="M270.50000558048487,275.5000032261014h35a5,5,0,0,1,5,5v12a5,5,0,0,1,-5,5h-35a5,5,0,0,1,-5,-5v-12a5,5,0,0,1,5,-5z" stroke-width="3"></path><g id="node_text55" fill="black"><text id="kity_text_457" text-rendering="inherit" font-size="12" dy=".8em" y="278.7000031992793" x="275.50000558048487">会话</text></g></g><g id="minder_node56" display="none"><g id="node_expander55" style="cursor: pointer;" display="none"><path id="kity_path_468" fill="white" stroke="gray" d="M305.50000593811274,327.500003837049A6,6,0,1,1,293.50000593811274,327.500003837049A6,6,0,1,1,305.50000593811274,327.500003837049"></path><path id="kity_path_469" fill="none" stroke="gray"></path></g><path id="node_outline56" fill="none" stroke="none" d="M300.5000060275197,316.500003837049h60a5,5,0,0,1,5,5v12a5,5,0,0,1,-5,5h-60a5,5,0,0,1,-5,-5v-12a5,5,0,0,1,5,-5z" stroke-width="3"></path><g id="node_text56" fill="black"><text id="kity_text_465" text-rendering="inherit" font-size="12" dy=".8em" y="319.7000038102269" x="305.5000060275197">文本摘要</text></g></g><g id="minder_node57" display="none"><g id="node_expander56" style="cursor: pointer;" display="none"><path id="kity_path_476" fill="white" stroke="gray" d="M305.50000593811274,357.50000428408384A6,6,0,1,1,293.50000593811274,357.50000428408384A6,6,0,1,1,305.50000593811274,357.50000428408384"></path><path id="kity_path_477" fill="none" stroke="gray"></path></g><path id="node_outline57" fill="none" stroke="none" d="M300.5000060275197,346.50000428408384h60a5,5,0,0,1,5,5v12a5,5,0,0,1,-5,5h-60a5,5,0,0,1,-5,-5v-12a5,5,0,0,1,5,-5z" stroke-width="3"></path><g id="node_text57" fill="black"><text id="kity_text_473" text-rendering="inherit" font-size="12" dy=".8em" y="349.70000425726175" x="305.5000060275197">共指消歧</text></g></g><g id="minder_node58" display="none"><g id="node_expander57" style="cursor: pointer;" display="none"><path id="kity_path_484" fill="white" stroke="gray" d="M305.50000593811274,387.5000047311187A6,6,0,1,1,293.50000593811274,387.5000047311187A6,6,0,1,1,305.50000593811274,387.5000047311187"></path><path id="kity_path_485" fill="none" stroke="gray"></path></g><path id="node_outline58" fill="none" stroke="none" d="M300.5000060275197,376.5000047311187h59a5,5,0,0,1,5,5v12a5,5,0,0,1,-5,5h-59a5,5,0,0,1,-5,-5v-12a5,5,0,0,1,5,-5z" stroke-width="3"></path><g id="node_text58" fill="black"><text id="kity_text_481" text-rendering="inherit" font-size="12" dy=".8em" y="379.7000047042966" x="305.5000060275197">会话分析</text></g></g><g id="minder_node59"><g id="node_expander58" style="cursor: pointer;"><path id="kity_path_492" fill="white" stroke="gray" d="M265.5000053420663,338.5000040009618A6,6,0,1,1,253.5000053420663,338.5000040009618A6,6,0,1,1,265.5000053420663,338.5000040009618"></path><path id="kity_path_493" fill="none" stroke="gray" d="M255.0000053420663,338.5000040009618L264.0000053420663,338.5000040009618M259.5000053420663,334.0000040009618L259.5000053420663,343.0000040009618"></path></g><path id="node_outline59" fill="none" stroke="none" d="M270.50000558048487,327.5000040009618h35a5,5,0,0,1,5,5v12a5,5,0,0,1,-5,5h-35a5,5,0,0,1,-5,-5v-12a5,5,0,0,1,5,-5z" stroke-width="3"></path><g id="node_text59" fill="black"><text id="kity_text_489" text-rendering="inherit" font-size="12" dy=".8em" y="330.7000039741397" x="275.50000558048487">语音</text></g></g><g id="minder_node60" display="none"><g id="node_expander59" style="cursor: pointer;" display="none"><path id="kity_path_500" fill="white" stroke="gray" d="M305.50000593811274,379.5000046119094A6,6,0,1,1,293.50000593811274,379.5000046119094A6,6,0,1,1,305.50000593811274,379.5000046119094"></path><path id="kity_path_501" fill="none" stroke="gray"></path></g><path id="node_outline60" fill="none" stroke="none" d="M300.5000060275197,368.5000046119094h59a5,5,0,0,1,5,5v12a5,5,0,0,1,-5,5h-59a5,5,0,0,1,-5,-5v-12a5,5,0,0,1,5,-5z" stroke-width="3"></path><g id="node_text60" fill="black"><text id="kity_text_497" text-rendering="inherit" font-size="12" dy=".8em" y="371.7000045850873" x="305.5000060275197">语音识别</text></g></g><g id="minder_node61" display="none"><g id="node_expander60" style="cursor: pointer;" display="none"><path id="kity_path_508" fill="white" stroke="gray" d="M305.50000593811274,409.5000050589442A6,6,0,1,1,293.50000593811274,409.5000050589442A6,6,0,1,1,305.50000593811274,409.5000050589442"></path><path id="kity_path_509" fill="none" stroke="gray"></path></g><path id="node_outline61" fill="none" stroke="none" d="M300.5000060275197,398.5000050589442h59a5,5,0,0,1,5,5v12a5,5,0,0,1,-5,5h-59a5,5,0,0,1,-5,-5v-12a5,5,0,0,1,5,-5z" stroke-width="3"></path><g id="node_text61" fill="black"><text id="kity_text_505" text-rendering="inherit" font-size="12" dy=".8em" y="401.70000503212214" x="305.5000060275197">语音分割</text></g></g><g id="minder_node62" display="none"><g id="node_expander61" style="cursor: pointer;" display="none"><path id="kity_path_516" fill="white" stroke="gray" d="M305.50000593811274,439.50000550597906A6,6,0,1,1,293.50000593811274,439.50000550597906A6,6,0,1,1,305.50000593811274,439.50000550597906"></path><path id="kity_path_517" fill="none" stroke="gray"></path></g><path id="node_outline62" fill="none" stroke="none" d="M300.5000060275197,428.50000550597906h71a5,5,0,0,1,5,5v12a5,5,0,0,1,-5,5h-71a5,5,0,0,1,-5,-5v-12a5,5,0,0,1,5,-5z" stroke-width="3"></path><g id="node_text62" fill="black"><text id="kity_text_513" text-rendering="inherit" font-size="12" dy=".8em" y="431.70000547915697" x="305.5000060275197">文字转语音</text></g></g><g id="minder_node63"><g id="node_expander62" style="cursor: pointer;" display="none"><path id="kity_path_524" fill="white" stroke="gray" d="M541.5000094547868,390.50000477582216A6,6,0,1,1,529.5000094547868,390.50000477582216A6,6,0,1,1,541.5000094547868,390.50000477582216"></path><path id="kity_path_525" fill="none" stroke="gray"></path></g><path id="node_outline63" fill="none" stroke="none" d="M546.5000096932054,379.50000477582216h60a5,5,0,0,1,5,5v12a5,5,0,0,1,-5,5h-60a5,5,0,0,1,-5,-5v-12a5,5,0,0,1,5,-5z" stroke-width="3"></path><g id="node_text63" fill="black"><text id="kity_text_521" text-rendering="inherit" font-size="12" dy=".8em" y="382.7000047490001" x="551.5000096932054">文字校对</text></g></g><g id="minder_node64"><g id="node_expander63" style="cursor: pointer;" display="none"><path id="kity_path_532" fill="white" stroke="gray" d="M541.5000094547868,442.50000555068254A6,6,0,1,1,529.5000094547868,442.50000555068254A6,6,0,1,1,541.5000094547868,442.50000555068254"></path><path id="kity_path_533" fill="none" stroke="gray"></path></g><path id="node_outline64" fill="none" stroke="none" d="M546.5000096932054,431.50000555068254h59a5,5,0,0,1,5,5v12a5,5,0,0,1,-5,5h-59a5,5,0,0,1,-5,-5v-12a5,5,0,0,1,5,-5z" stroke-width="3"></path><g id="node_text64" fill="black"><text id="kity_text_529" text-rendering="inherit" font-size="12" dy=".8em" y="434.70000552386045" x="551.5000096932054">问答模型</text></g></g><g id="minder_node65"><g id="node_expander64" style="cursor: pointer;" display="none"><path id="kity_path_540" fill="white" stroke="gray" d="M541.5000094547868,494.5000063255429A6,6,0,1,1,529.5000094547868,494.5000063255429A6,6,0,1,1,541.5000094547868,494.5000063255429"></path><path id="kity_path_541" fill="none" stroke="gray"></path></g><path id="node_outline65" fill="none" stroke="none" d="M546.5000096932054,483.5000063255429h60a5,5,0,0,1,5,5v12a5,5,0,0,1,-5,5h-60a5,5,0,0,1,-5,-5v-12a5,5,0,0,1,5,-5z" stroke-width="3"></path><g id="node_text65" fill="black"><text id="kity_text_537" text-rendering="inherit" font-size="12" dy=".8em" y="486.70000629872084" x="551.5000096932054">语义网络</text></g></g><g id="minder_node66"><g id="node_expander65" style="cursor: pointer;"><path id="kity_path_548" fill="white" stroke="gray" d="M60.50000228732824,234.50000245124102A6,6,0,1,1,48.50000228732824,234.50000245124102A6,6,0,1,1,60.50000228732824,234.50000245124102"></path><path id="kity_path_549" fill="none" stroke="gray" d="M50.00000228732824,234.50000245124102L59.00000228732824,234.50000245124102M54.50000228732824,230.00000245124102L54.50000228732824,239.00000245124102"></path></g><path id="node_outline66" fill="none" stroke="none" d="M65.50000252574682,223.50000245124102h76a5,5,0,0,1,5,5v12a5,5,0,0,1,-5,5h-76a5,5,0,0,1,-5,-5v-12a5,5,0,0,1,5,-5z" stroke-width="3"></path><g id="node_text66" fill="black"><text id="kity_text_545" text-rendering="inherit" font-size="12" dy=".8em" y="226.70000242441893" x="70.50000252574682">Embedding</text></g></g><g id="minder_node67"><g id="node_expander66" style="cursor: pointer;"><path id="kity_path_556" fill="white" stroke="gray" d="M60.50000228732824,650.5000086501241A6,6,0,1,1,48.50000228732824,650.5000086501241A6,6,0,1,1,60.50000228732824,650.5000086501241"></path><path id="kity_path_557" fill="none" stroke="gray" d="M50.00000228732824,650.5000086501241L59.00000228732824,650.5000086501241M54.50000228732824,646.0000086501241L54.50000228732824,655.0000086501241"></path></g><path id="node_outline67" fill="none" stroke="none" d="M65.50000252574682,639.5000086501241h115a5,5,0,0,1,5,5v12a5,5,0,0,1,-5,5h-115a5,5,0,0,1,-5,-5v-12a5,5,0,0,1,5,-5z" stroke-width="3"></path><g id="node_text67" fill="black"><text id="kity_text_553" text-rendering="inherit" font-size="12" dy=".8em" y="642.700008623302" x="70.50000252574682">Graph-Knowledge</text></g></g><g id="minder_node68" display="none"><g id="node_expander67" style="cursor: pointer;" display="none"><path id="kity_path_564" fill="white" stroke="gray" d="M100.50000288337469,223.50000228732824A6,6,0,1,1,88.50000288337469,223.50000228732824A6,6,0,1,1,100.50000288337469,223.50000228732824"></path><path id="kity_path_565" fill="none" stroke="gray"></path></g><path id="node_outline68" fill="none" stroke="none" d="M95.50000297278166,212.50000228732824h48a5,5,0,0,1,5,5v12a5,5,0,0,1,-5,5h-48a5,5,0,0,1,-5,-5v-12a5,5,0,0,1,5,-5z" stroke-width="3"></path><g id="node_text68" fill="black"><text id="kity_text_561" text-rendering="inherit" font-size="12" dy=".8em" y="215.70000226050615" x="100.50000297278166">CBOW</text></g></g><g id="minder_node69" display="none"><g id="node_expander68" style="cursor: pointer;" display="none"><path id="kity_path_572" fill="white" stroke="gray" d="M100.50000288337469,253.50000273436308A6,6,0,1,1,88.50000288337469,253.50000273436308A6,6,0,1,1,100.50000288337469,253.50000273436308"></path><path id="kity_path_573" fill="none" stroke="gray"></path></g><path id="node_outline69" fill="none" stroke="none" d="M95.50000297278166,242.50000273436308h68a5,5,0,0,1,5,5v12a5,5,0,0,1,-5,5h-68a5,5,0,0,1,-5,-5v-12a5,5,0,0,1,5,-5z" stroke-width="3"></path><g id="node_text69" fill="black"><text id="kity_text_569" text-rendering="inherit" font-size="12" dy=".8em" y="245.700002707541" x="100.50000297278166">skip-gram</text></g></g><g id="minder_node71" display="none"><g id="node_expander70" style="cursor: pointer;" display="none"><path id="kity_path_588" fill="white" stroke="gray" d="M100.50000288337469,283.5000031813979A6,6,0,1,1,88.50000288337469,283.5000031813979A6,6,0,1,1,100.50000288337469,283.5000031813979"></path><path id="kity_path_589" fill="none" stroke="gray" d="M90.00000288337469,283.5000031813979L99.00000288337469,283.5000031813979"></path></g><path id="node_outline71" fill="none" stroke="none" d="M95.50000297278166,272.5000031813979h108a5,5,0,0,1,5,5v12a5,5,0,0,1,-5,5h-108a5,5,0,0,1,-5,-5v-12a5,5,0,0,1,5,-5z" stroke-width="3"></path><g id="node_text71" fill="black"><text id="kity_text_585" text-rendering="inherit" font-size="12" dy=".8em" y="275.7000031545758" x="100.50000297278166">条件对数似然估计</text></g></g><g id="minder_node73" display="none"><g id="node_expander72" style="cursor: pointer;" display="none"><path id="kity_path_604" fill="white" stroke="gray" d="M100.50000288337469,313.50000362843275A6,6,0,1,1,88.50000288337469,313.50000362843275A6,6,0,1,1,100.50000288337469,313.50000362843275"></path><path id="kity_path_605" fill="none" stroke="gray"></path></g><path id="node_outline73" fill="none" stroke="none" d="M95.50000297278166,302.50000362843275h96a5,5,0,0,1,5,5v12a5,5,0,0,1,-5,5h-96a5,5,0,0,1,-5,-5v-12a5,5,0,0,1,5,-5z" stroke-width="3"></path><g id="node_text73" fill="black"><text id="kity_text_601" text-rendering="inherit" font-size="12" dy=".8em" y="305.70000360161066" x="100.50000297278166">paragrapg2vec</text></g></g><g id="minder_node74" display="none"><g id="node_expander73" style="cursor: pointer;" display="none"><path id="kity_path_612" fill="white" stroke="gray" d="M100.50000288337469,343.5000040754676A6,6,0,1,1,88.50000288337469,343.5000040754676A6,6,0,1,1,100.50000288337469,343.5000040754676"></path><path id="kity_path_613" fill="none" stroke="gray"></path></g><path id="node_outline74" fill="none" stroke="none" d="M95.50000297278166,332.5000040754676h57a5,5,0,0,1,5,5v12a5,5,0,0,1,-5,5h-57a5,5,0,0,1,-5,-5v-12a5,5,0,0,1,5,-5z" stroke-width="3"></path><g id="node_text74" fill="black"><text id="kity_text_609" text-rendering="inherit" font-size="12" dy=".8em" y="335.7000040486455" x="100.50000297278166">doc2vec</text></g></g><g id="minder_node77" display="none"><g id="node_expander76" style="cursor: pointer;" display="none"><path id="kity_path_636" fill="white" stroke="gray" d="M100.50000288337469,335.5000039562583A6,6,0,1,1,88.50000288337469,335.5000039562583A6,6,0,1,1,100.50000288337469,335.5000039562583"></path><path id="kity_path_637" fill="none" stroke="gray"></path></g><path id="node_outline77" fill="none" stroke="none" d="M95.50000297278166,324.5000039562583h167a5,5,0,0,1,5,5v12a5,5,0,0,1,-5,5h-167a5,5,0,0,1,-5,-5v-12a5,5,0,0,1,5,-5z" stroke-width="3"></path><g id="node_text77" fill="black"><text id="kity_text_633" text-rendering="inherit" font-size="12" dy=".8em" y="327.7000039294362" x="100.50000297278166">单词空间映射到低维向量空间</text></g></g><g id="minder_node78" display="none"><g id="node_expander77" style="cursor: pointer;" display="none"><path id="kity_path_644" fill="white" stroke="gray" d="M100.50000288337469,365.50000440329313A6,6,0,1,1,88.50000288337469,365.50000440329313A6,6,0,1,1,100.50000288337469,365.50000440329313"></path><path id="kity_path_645" fill="none" stroke="gray"></path></g><path id="node_outline78" fill="none" stroke="none" d="M95.50000297278166,354.50000440329313h48a5,5,0,0,1,5,5v12a5,5,0,0,1,-5,5h-48a5,5,0,0,1,-5,-5v-12a5,5,0,0,1,5,-5z" stroke-width="3"></path><g id="node_text78" fill="black"><text id="kity_text_641" text-rendering="inherit" font-size="12" dy=".8em" y="357.70000437647104" x="100.50000297278166">相似度</text></g></g><g id="minder_node80" display="none"><g id="node_expander79" style="cursor: pointer;" display="none"><path id="kity_path_660" fill="white" stroke="gray" d="M100.50000288337469,395.50000485032797A6,6,0,1,1,88.50000288337469,395.50000485032797A6,6,0,1,1,100.50000288337469,395.50000485032797"></path><path id="kity_path_661" fill="none" stroke="gray"></path></g><path id="node_outline80" fill="none" stroke="none" d="M95.50000297278166,384.50000485032797h83a5,5,0,0,1,5,5v12a5,5,0,0,1,-5,5h-83a5,5,0,0,1,-5,-5v-12a5,5,0,0,1,5,-5z" stroke-width="3"></path><g id="node_text80" fill="black"><text id="kity_text_657" text-rendering="inherit" font-size="12" dy=".8em" y="387.7000048235059" x="100.50000297278166">局部线性嵌入</text></g></g><g id="minder_node81" display="none"><g id="node_expander80" style="cursor: pointer;" display="none"><path id="kity_path_668" fill="white" stroke="gray" d="M100.50000288337469,327.500003837049A6,6,0,1,1,88.50000288337469,327.500003837049A6,6,0,1,1,100.50000288337469,327.500003837049"></path><path id="kity_path_669" fill="none" stroke="gray"></path></g><path id="node_outline81" fill="none" stroke="none" d="M95.50000297278166,316.500003837049h114a5,5,0,0,1,5,5v12a5,5,0,0,1,-5,5h-114a5,5,0,0,1,-5,-5v-12a5,5,0,0,1,5,-5z" stroke-width="3"></path><g id="node_text81" fill="black"><text id="kity_text_665" text-rendering="inherit" font-size="12" dy=".8em" y="319.7000038102269" x="100.50000297278166">window approach</text></g></g><g id="minder_node82" display="none"><g id="node_expander81" style="cursor: pointer;" display="none"><path id="kity_path_676" fill="white" stroke="gray" d="M100.50000288337469,357.50000428408384A6,6,0,1,1,88.50000288337469,357.50000428408384A6,6,0,1,1,100.50000288337469,357.50000428408384"></path><path id="kity_path_677" fill="none" stroke="gray"></path></g><path id="node_outline82" fill="none" stroke="none" d="M95.50000297278166,346.50000428408384h119a5,5,0,0,1,5,5v12a5,5,0,0,1,-5,5h-119a5,5,0,0,1,-5,-5v-12a5,5,0,0,1,5,-5z" stroke-width="3"></path><g id="node_text82" fill="black"><text id="kity_text_673" text-rendering="inherit" font-size="12" dy=".8em" y="349.70000425726175" x="100.50000297278166">sentence approach</text></g></g><g id="minder_node83" display="none"><g id="node_expander82" style="cursor: pointer;" display="none"><path id="kity_path_684" fill="white" stroke="gray" d="M100.50000288337469,387.5000047311187A6,6,0,1,1,88.50000288337469,387.5000047311187A6,6,0,1,1,100.50000288337469,387.5000047311187"></path><path id="kity_path_685" fill="none" stroke="gray"></path></g><path id="node_outline83" fill="none" stroke="none" d="M95.50000297278166,376.5000047311187h120a5,5,0,0,1,5,5v12a5,5,0,0,1,-5,5h-120a5,5,0,0,1,-5,-5v-12a5,5,0,0,1,5,-5z" stroke-width="3"></path><g id="node_text83" fill="black"><text id="kity_text_681" text-rendering="inherit" font-size="12" dy=".8em" y="379.7000047042966" x="100.50000297278166">DCNN动态卷积网络</text></g></g><g id="minder_node84" display="none"><g id="node_expander83" style="cursor: pointer;" display="none"><path id="kity_path_692" fill="white" stroke="gray" d="M100.50000288337469,417.5000051781535A6,6,0,1,1,88.50000288337469,417.5000051781535A6,6,0,1,1,100.50000288337469,417.5000051781535"></path><path id="kity_path_693" fill="none" stroke="gray"></path></g><path id="node_outline84" fill="none" stroke="none" d="M95.50000297278166,406.5000051781535h123a5,5,0,0,1,5,5v12a5,5,0,0,1,-5,5h-123a5,5,0,0,1,-5,-5v-12a5,5,0,0,1,5,-5z" stroke-width="3"></path><g id="node_text84" fill="black"><text id="kity_text_689" text-rendering="inherit" font-size="12" dy=".8em" y="409.7000051513314" x="100.50000297278166">Dilated convolution</text></g></g><g id="minder_node85" display="none"><g id="node_expander84" style="cursor: pointer;" display="none"><path id="kity_path_700" fill="white" stroke="gray" d="M100.50000288337469,447.50000562518835A6,6,0,1,1,88.50000288337469,447.50000562518835A6,6,0,1,1,100.50000288337469,447.50000562518835"></path><path id="kity_path_701" fill="none" stroke="gray"></path></g><path id="node_outline85" fill="none" stroke="none" d="M95.50000297278166,436.50000562518835h72a5,5,0,0,1,5,5v12a5,5,0,0,1,-5,5h-72a5,5,0,0,1,-5,-5v-12a5,5,0,0,1,5,-5z" stroke-width="3"></path><g id="node_text85" fill="black"><text id="kity_text_697" text-rendering="inherit" font-size="12" dy=".8em" y="439.70000559836626" x="100.50000297278166">依存句法树</text></g></g><g id="minder_node87" opacity="1"><g id="node_expander86" style="cursor: pointer;"><path id="kity_path_716" fill="white" stroke="gray" d="M60.50000228732824,494.5000063255429A6,6,0,1,1,48.50000228732824,494.5000063255429A6,6,0,1,1,60.50000228732824,494.5000063255429"></path><path id="kity_path_717" fill="none" stroke="gray" d="M50.00000228732824,494.5000063255429L59.00000228732824,494.5000063255429M54.50000228732824,490.0000063255429L54.50000228732824,499.0000063255429"></path></g><path id="node_outline87" fill="none" stroke="none" d="M65.50000252574682,483.5000063255429h60a5,5,0,0,1,5,5v12a5,5,0,0,1,-5,5h-60a5,5,0,0,1,-5,-5v-12a5,5,0,0,1,5,-5z" stroke-width="3"></path><g id="node_text87" fill="black"><text id="kity_text_713" text-rendering="inherit" font-size="12" dy=".8em" y="486.70000629872084" x="70.50000252574682">Seq2Seq</text></g></g><g id="minder_node88" display="none"><g id="node_expander87" style="cursor: pointer;" display="none"><path id="kity_path_724" fill="white" stroke="gray" d="M100.50000288337469,477.5000060722232A6,6,0,1,1,88.50000288337469,477.5000060722232A6,6,0,1,1,100.50000288337469,477.5000060722232"></path><path id="kity_path_725" fill="none" stroke="gray"></path></g><path id="node_outline88" fill="none" stroke="none" d="M95.50000297278166,466.5000060722232h121a5,5,0,0,1,5,5v12a5,5,0,0,1,-5,5h-121a5,5,0,0,1,-5,-5v-12a5,5,0,0,1,5,-5z" stroke-width="3"></path><g id="node_text88" fill="black"><text id="kity_text_721" text-rendering="inherit" font-size="12" dy=".8em" y="469.7000060454011" x="100.50000297278166">Sentence Matching</text></g></g><g id="minder_node90" opacity="1"><g id="node_expander89" style="cursor: pointer;"><path id="kity_path_740" fill="white" stroke="gray" d="M60.50000228732824,598.5000078752637A6,6,0,1,1,48.50000228732824,598.5000078752637A6,6,0,1,1,60.50000228732824,598.5000078752637"></path><path id="kity_path_741" fill="none" stroke="gray" d="M50.00000228732824,598.5000078752637L59.00000228732824,598.5000078752637M54.50000228732824,594.0000078752637L54.50000228732824,603.0000078752637"></path></g><path id="node_outline90" fill="none" stroke="none" d="M65.50000252574682,587.5000078752637h37a5,5,0,0,1,5,5v12a5,5,0,0,1,-5,5h-37a5,5,0,0,1,-5,-5v-12a5,5,0,0,1,5,-5z" stroke-width="3"></path><g id="node_text90" fill="black"><text id="kity_text_737" text-rendering="inherit" font-size="12" dy=".8em" y="590.7000078484416" x="70.50000252574682">GAN</text></g></g><g id="minder_node91" opacity="1"><g id="node_expander90" style="cursor: pointer;"><path id="kity_path_748" fill="white" stroke="gray" d="M60.50000228732824,546.5000071004033A6,6,0,1,1,48.50000228732824,546.5000071004033A6,6,0,1,1,60.50000228732824,546.5000071004033"></path><path id="kity_path_749" fill="none" stroke="gray" d="M50.00000228732824,546.5000071004033L59.00000228732824,546.5000071004033M54.50000228732824,542.0000071004033L54.50000228732824,551.0000071004033"></path></g><path id="node_outline91" fill="none" stroke="none" d="M65.50000252574682,535.5000071004033h106a5,5,0,0,1,5,5v12a5,5,0,0,1,-5,5h-106a5,5,0,0,1,-5,-5v-12a5,5,0,0,1,5,-5z" stroke-width="3"></path><g id="node_text91" fill="black"><text id="kity_text_745" text-rendering="inherit" font-size="12" dy=".8em" y="538.7000070735812" x="70.50000252574682">Attention Model</text></g></g><g id="minder_node92" display="none"><g id="node_expander91" style="cursor: pointer;" display="none"><path id="kity_path_756" fill="white" stroke="gray" d="M100.50000288337469,379.5000046119094A6,6,0,1,1,88.50000288337469,379.5000046119094A6,6,0,1,1,100.50000288337469,379.5000046119094"></path><path id="kity_path_757" fill="none" stroke="gray"></path></g><path id="node_outline92" fill="none" stroke="none" d="M95.50000297278166,368.5000046119094h71a5,5,0,0,1,5,5v12a5,5,0,0,1,-5,5h-71a5,5,0,0,1,-5,-5v-12a5,5,0,0,1,5,-5z" stroke-width="3"></path><g id="node_text92" fill="black"><text id="kity_text_753" text-rendering="inherit" font-size="12" dy=".8em" y="371.7000045850873" x="100.50000297278166">Reset gate</text></g></g><g id="minder_node93" display="none"><g id="node_expander92" style="cursor: pointer;" display="none"><path id="kity_path_764" fill="white" stroke="gray" d="M100.50000288337469,409.5000050589442A6,6,0,1,1,88.50000288337469,409.5000050589442A6,6,0,1,1,100.50000288337469,409.5000050589442"></path><path id="kity_path_765" fill="none" stroke="gray"></path></g><path id="node_outline93" fill="none" stroke="none" d="M95.50000297278166,398.5000050589442h86a5,5,0,0,1,5,5v12a5,5,0,0,1,-5,5h-86a5,5,0,0,1,-5,-5v-12a5,5,0,0,1,5,-5z" stroke-width="3"></path><g id="node_text93" fill="black"><text id="kity_text_761" text-rendering="inherit" font-size="12" dy=".8em" y="401.70000503212214" x="100.50000297278166">new memory</text></g></g><g id="minder_node94" display="none"><g id="node_expander93" style="cursor: pointer;" display="none"><path id="kity_path_772" fill="white" stroke="gray" d="M100.50000288337469,439.50000550597906A6,6,0,1,1,88.50000288337469,439.50000550597906A6,6,0,1,1,100.50000288337469,439.50000550597906"></path><path id="kity_path_773" fill="none" stroke="gray"></path></g><path id="node_outline94" fill="none" stroke="none" d="M95.50000297278166,428.50000550597906h82a5,5,0,0,1,5,5v12a5,5,0,0,1,-5,5h-82a5,5,0,0,1,-5,-5v-12a5,5,0,0,1,5,-5z" stroke-width="3"></path><g id="node_text94" fill="black"><text id="kity_text_769" text-rendering="inherit" font-size="12" dy=".8em" y="431.70000547915697" x="100.50000297278166">Update gate</text></g></g><g id="minder_node95" display="none"><g id="node_expander94" style="cursor: pointer;" display="none"><path id="kity_path_780" fill="white" stroke="gray" d="M100.50000288337469,469.5000059530139A6,6,0,1,1,88.50000288337469,469.5000059530139A6,6,0,1,1,100.50000288337469,469.5000059530139"></path><path id="kity_path_781" fill="none" stroke="gray"></path></g><path id="node_outline95" fill="none" stroke="none" d="M95.50000297278166,458.5000059530139h84a5,5,0,0,1,5,5v12a5,5,0,0,1,-5,5h-84a5,5,0,0,1,-5,-5v-12a5,5,0,0,1,5,-5z" stroke-width="3"></path><g id="node_text95" fill="black"><text id="kity_text_777" text-rendering="inherit" font-size="12" dy=".8em" y="461.7000059261918" x="100.50000297278166">Hidden state</text></g></g><g id="minder_node96" display="none"><g id="node_expander95" style="cursor: pointer;" display="none"><path id="kity_path_788" fill="white" stroke="gray" d="M100.50000288337469,483.50000616163015A6,6,0,1,1,88.50000288337469,483.50000616163015A6,6,0,1,1,100.50000288337469,483.50000616163015"></path><path id="kity_path_789" fill="none" stroke="gray"></path></g><path id="node_outline96" fill="none" stroke="none" d="M95.50000297278166,472.50000616163015h108a5,5,0,0,1,5,5v12a5,5,0,0,1,-5,5h-108a5,5,0,0,1,-5,-5v-12a5,5,0,0,1,5,-5z" stroke-width="3"></path><g id="node_text96" fill="black"><text id="kity_text_785" text-rendering="inherit" font-size="12" dy=".8em" y="475.70000613480806" x="100.50000297278166">new memory cell</text></g></g><g id="minder_node97" display="none"><g id="node_expander96" style="cursor: pointer;" display="none"><path id="kity_path_796" fill="white" stroke="gray" d="M100.50000288337469,513.500006608665A6,6,0,1,1,88.50000288337469,513.500006608665A6,6,0,1,1,100.50000288337469,513.500006608665"></path><path id="kity_path_797" fill="none" stroke="gray"></path></g><path id="node_outline97" fill="none" stroke="none" d="M95.50000297278166,502.500006608665h70a5,5,0,0,1,5,5v12a5,5,0,0,1,-5,5h-70a5,5,0,0,1,-5,-5v-12a5,5,0,0,1,5,-5z" stroke-width="3"></path><g id="node_text97" fill="black"><text id="kity_text_793" text-rendering="inherit" font-size="12" dy=".8em" y="505.7000065818429" x="100.50000297278166">Input gate</text></g></g><g id="minder_node98" display="none"><g id="node_expander97" style="cursor: pointer;" display="none"><path id="kity_path_804" fill="white" stroke="gray" d="M100.50000288337469,543.5000070556998A6,6,0,1,1,88.50000288337469,543.5000070556998A6,6,0,1,1,100.50000288337469,543.5000070556998"></path><path id="kity_path_805" fill="none" stroke="gray"></path></g><path id="node_outline98" fill="none" stroke="none" d="M95.50000297278166,532.5000070556998h77a5,5,0,0,1,5,5v12a5,5,0,0,1,-5,5h-77a5,5,0,0,1,-5,-5v-12a5,5,0,0,1,5,-5z" stroke-width="3"></path><g id="node_text98" fill="black"><text id="kity_text_801" text-rendering="inherit" font-size="12" dy=".8em" y="535.7000070288777" x="100.50000297278166">Forget gate</text></g></g><g id="minder_node99" display="none"><g id="node_expander98" style="cursor: pointer;" display="none"><path id="kity_path_812" fill="white" stroke="gray" d="M100.50000288337469,573.5000075027347A6,6,0,1,1,88.50000288337469,573.5000075027347A6,6,0,1,1,100.50000288337469,573.5000075027347"></path><path id="kity_path_813" fill="none" stroke="gray"></path></g><path id="node_outline99" fill="none" stroke="none" d="M95.50000297278166,562.5000075027347h109a5,5,0,0,1,5,5v12a5,5,0,0,1,-5,5h-109a5,5,0,0,1,-5,-5v-12a5,5,0,0,1,5,-5z" stroke-width="3"></path><g id="node_text99" fill="black"><text id="kity_text_809" text-rendering="inherit" font-size="12" dy=".8em" y="565.7000074759126" x="100.50000297278166">final memory cell</text></g></g><g id="minder_node100" display="none"><g id="node_expander99" style="cursor: pointer;" display="none"><path id="kity_path_820" fill="white" stroke="gray" d="M100.50000288337469,603.5000079497695A6,6,0,1,1,88.50000288337469,603.5000079497695A6,6,0,1,1,100.50000288337469,603.5000079497695"></path><path id="kity_path_821" fill="none" stroke="gray"></path></g><path id="node_outline100" fill="none" stroke="none" d="M95.50000297278166,592.5000079497695h81a5,5,0,0,1,5,5v12a5,5,0,0,1,-5,5h-81a5,5,0,0,1,-5,-5v-12a5,5,0,0,1,5,-5z" stroke-width="3"></path><g id="node_text100" fill="black"><text id="kity_text_817" text-rendering="inherit" font-size="12" dy=".8em" y="595.7000079229474" x="100.50000297278166">Output gate</text></g></g><g id="minder_node102" display="none"><g id="node_expander101" style="cursor: pointer;" display="none"><path id="kity_path_836" fill="white" stroke="gray" d="M100.50000288337469,431.50000538676977A6,6,0,1,1,88.50000288337469,431.50000538676977A6,6,0,1,1,100.50000288337469,431.50000538676977"></path><path id="kity_path_837" fill="none" stroke="gray"></path></g><path id="node_outline102" fill="none" stroke="none" d="M95.50000297278166,420.50000538676977h129a5,5,0,0,1,5,5v12a5,5,0,0,1,-5,5h-129a5,5,0,0,1,-5,-5v-12a5,5,0,0,1,5,-5z" stroke-width="3"></path><g id="node_text102" fill="black"><text id="kity_text_833" text-rendering="inherit" font-size="12" dy=".8em" y="423.7000053599477" font-style="italic" x="100.50000297278166">Recurrent：时间递归</text></g></g><g id="minder_node103" display="none"><g id="node_expander102" style="cursor: pointer;" display="none"><path id="kity_path_844" fill="white" stroke="gray" d="M100.50000288337469,461.5000058338046A6,6,0,1,1,88.50000288337469,461.5000058338046A6,6,0,1,1,100.50000288337469,461.5000058338046"></path><path id="kity_path_845" fill="none" stroke="gray"></path></g><path id="node_outline103" fill="none" stroke="none" d="M95.50000297278166,450.5000058338046h123a5,5,0,0,1,5,5v12a5,5,0,0,1,-5,5h-123a5,5,0,0,1,-5,-5v-12a5,5,0,0,1,5,-5z" stroke-width="3"></path><g id="node_text103" fill="black"><text id="kity_text_841" text-rendering="inherit" font-size="12" dy=".8em" y="453.7000058069825" font-style="italic" x="100.50000297278166">Recusive：结构递归</text></g></g><g id="minder_node104" display="none"><g id="node_expander103" style="cursor: pointer;" display="none"><path id="kity_path_852" fill="white" stroke="gray" d="M100.50000288337469,491.50000628083944A6,6,0,1,1,88.50000288337469,491.50000628083944A6,6,0,1,1,100.50000288337469,491.50000628083944"></path><path id="kity_path_853" fill="none" stroke="gray"></path></g><path id="node_outline104" fill="none" stroke="none" d="M95.50000297278166,480.50000628083944h113a5,5,0,0,1,5,5v12a5,5,0,0,1,-5,5h-113a5,5,0,0,1,-5,-5v-12a5,5,0,0,1,5,-5z" stroke-width="3"></path><g id="node_text104" fill="black"><text id="kity_text_849" text-rendering="inherit" font-size="12" dy=".8em" y="483.70000625401735" x="100.50000297278166">梯度消失/梯度爆炸</text></g></g><g id="minder_node105" display="none"><g id="node_expander104" style="cursor: pointer;" display="none"><path id="kity_path_860" fill="white" stroke="gray" d="M100.50000288337469,521.5000067278743A6,6,0,1,1,88.50000288337469,521.5000067278743A6,6,0,1,1,100.50000288337469,521.5000067278743"></path><path id="kity_path_861" fill="none" stroke="gray"></path></g><path id="node_outline105" fill="none" stroke="none" d="M95.50000297278166,510.5000067278743h71a5,5,0,0,1,5,5v12a5,5,0,0,1,-5,5h-71a5,5,0,0,1,-5,-5v-12a5,5,0,0,1,5,-5z" stroke-width="3"></path><g id="node_text105" fill="black"><text id="kity_text_857" text-rendering="inherit" font-size="12" dy=".8em" y="513.7000067010522" x="100.50000297278166">长距离依赖</text></g></g><g id="minder_node106" display="none"><g id="node_expander105" style="cursor: pointer;" display="none"><path id="kity_path_868" fill="white" stroke="gray" d="M100.50000288337469,535.5000069364905A6,6,0,1,1,88.50000288337469,535.5000069364905A6,6,0,1,1,100.50000288337469,535.5000069364905"></path><path id="kity_path_869" fill="none" stroke="gray"></path></g><path id="node_outline106" fill="none" stroke="none" d="M95.50000297278166,524.5000069364905h57a5,5,0,0,1,5,5v12a5,5,0,0,1,-5,5h-57a5,5,0,0,1,-5,-5v-12a5,5,0,0,1,5,-5z" stroke-width="3"></path><g id="node_text106" fill="black"><text id="kity_text_865" text-rendering="inherit" font-size="12" dy=".8em" y="527.7000069096684" x="100.50000297278166">encoder</text></g></g><g id="minder_node107" display="none"><g id="node_expander106" style="cursor: pointer;" display="none"><path id="kity_path_876" fill="white" stroke="gray" d="M100.50000288337469,565.5000073835254A6,6,0,1,1,88.50000288337469,565.5000073835254A6,6,0,1,1,100.50000288337469,565.5000073835254"></path><path id="kity_path_877" fill="none" stroke="gray"></path></g><path id="node_outline107" fill="none" stroke="none" d="M95.50000297278166,554.5000073835254h58a5,5,0,0,1,5,5v12a5,5,0,0,1,-5,5h-58a5,5,0,0,1,-5,-5v-12a5,5,0,0,1,5,-5z" stroke-width="3"></path><g id="node_text107" fill="black"><text id="kity_text_873" text-rendering="inherit" font-size="12" dy=".8em" y="557.7000073567033" x="100.50000297278166">decoder</text></g></g><g id="minder_node108" display="none"><g id="node_expander107" style="cursor: pointer;" display="none"><path id="kity_path_884" fill="white" stroke="gray" d="M100.50000288337469,595.5000078305602A6,6,0,1,1,88.50000288337469,595.5000078305602A6,6,0,1,1,100.50000288337469,595.5000078305602"></path><path id="kity_path_885" fill="none" stroke="gray"></path></g><path id="node_outline108" fill="none" stroke="none" d="M95.50000297278166,584.5000078305602h62a5,5,0,0,1,5,5v12a5,5,0,0,1,-5,5h-62a5,5,0,0,1,-5,-5v-12a5,5,0,0,1,5,-5z" stroke-width="3"></path><g id="node_text108" fill="black"><text id="kity_text_881" text-rendering="inherit" font-size="12" dy=".8em" y="587.7000078037381" x="100.50000297278166">attention</text></g></g><g id="minder_node109" display="none"><g id="node_expander108" style="cursor: pointer;" display="none"><path id="kity_path_892" fill="white" stroke="gray" d="M100.50000288337469,625.500008277595A6,6,0,1,1,88.50000288337469,625.500008277595A6,6,0,1,1,100.50000288337469,625.500008277595"></path><path id="kity_path_893" fill="none" stroke="gray"></path></g><path id="node_outline109" fill="none" stroke="none" d="M95.50000297278166,614.500008277595h122a5,5,0,0,1,5,5v12a5,5,0,0,1,-5,5h-122a5,5,0,0,1,-5,-5v-12a5,5,0,0,1,5,-5z" stroke-width="3"></path><g id="node_text109" fill="black"><text id="kity_text_889" text-rendering="inherit" font-size="12" dy=".8em" y="617.700008250773" x="100.50000297278166">Residualconnection</text></g></g><g id="minder_node110" opacity="1" display="none"><g id="node_expander109" style="cursor: pointer;" display="none"><path id="kity_path_900" fill="white" stroke="gray" d="M100.50000288337469,275.5000030621886A6,6,0,1,1,88.50000288337469,275.5000030621886A6,6,0,1,1,100.50000288337469,275.5000030621886"></path><path id="kity_path_901" fill="none" stroke="gray"></path></g><path id="node_outline110" fill="none" stroke="none" d="M95.50000297278166,264.5000030621886h126a5,5,0,0,1,5,5v12a5,5,0,0,1,-5,5h-126a5,5,0,0,1,-5,-5v-12a5,5,0,0,1,5,-5z" stroke-width="3"></path><g id="node_text110" fill="black"><text id="kity_text_897" text-rendering="inherit" font-size="12" dy=".8em" y="267.70000303536654" x="100.50000297278166">position embedding</text></g></g><g id="minder_node111" opacity="1" display="none"><g id="node_expander110" style="cursor: pointer;" display="none"><path id="kity_path_908" fill="white" stroke="gray" d="M100.50000288337469,305.50000350922346A6,6,0,1,1,88.50000288337469,305.50000350922346A6,6,0,1,1,100.50000288337469,305.50000350922346"></path><path id="kity_path_909" fill="none" stroke="gray"></path></g><path id="node_outline111" fill="none" stroke="none" d="M95.50000297278166,294.50000350922346h110a5,5,0,0,1,5,5v12a5,5,0,0,1,-5,5h-110a5,5,0,0,1,-5,-5v-12a5,5,0,0,1,5,-5z" stroke-width="3"></path><g id="node_text111" fill="black"><text id="kity_text_905" text-rendering="inherit" font-size="12" dy=".8em" y="297.70000348240137" x="100.50000297278166">word embedding</text></g></g><g id="minder_node112" display="none"><g id="node_expander111" style="cursor: pointer;" display="none"><path id="kity_path_916" fill="white" stroke="gray" d="M100.50000288337469,655.5000087246299A6,6,0,1,1,88.50000288337469,655.5000087246299A6,6,0,1,1,100.50000288337469,655.5000087246299"></path><path id="kity_path_917" fill="none" stroke="gray"></path></g><path id="node_outline112" fill="none" stroke="none" d="M95.50000297278166,644.5000087246299h87a5,5,0,0,1,5,5v12a5,5,0,0,1,-5,5h-87a5,5,0,0,1,-5,-5v-12a5,5,0,0,1,5,-5z"></path><g id="node_text112" fill="black"><text id="kity_text_913" text-rendering="inherit" font-size="12" dy=".8em" y="647.7000086978078" x="100.50000297278166">self-attention</text></g></g><g id="minder_node113" display="none"><g id="node_expander112" style="cursor: pointer;" display="none"><path id="kity_path_924" fill="white" stroke="gray" d="M100.50000288337469,685.5000091716647A6,6,0,1,1,88.50000288337469,685.5000091716647A6,6,0,1,1,100.50000288337469,685.5000091716647"></path><path id="kity_path_925" fill="none" stroke="gray"></path></g><path id="node_outline113" fill="none" stroke="none" d="M95.50000297278166,674.5000091716647h129a5,5,0,0,1,5,5v12a5,5,0,0,1,-5,5h-129a5,5,0,0,1,-5,-5v-12a5,5,0,0,1,5,-5z" stroke-width="3"></path><g id="node_text113" fill="black"><text id="kity_text_921" text-rendering="inherit" font-size="12" dy=".8em" y="677.7000091448426" x="100.50000297278166">multi-head attention</text></g></g><g id="minder_node114" display="none"><g id="node_expander113" style="cursor: pointer;" display="none"><path id="kity_path_932" fill="white" stroke="gray" d="M100.50000288337469,617.5000081583858A6,6,0,1,1,88.50000288337469,617.5000081583858A6,6,0,1,1,100.50000288337469,617.5000081583858"></path><path id="kity_path_933" fill="none" stroke="gray"></path></g><path id="node_outline114" fill="none" stroke="none" d="M95.50000297278166,606.5000081583858h96a5,5,0,0,1,5,5v12a5,5,0,0,1,-5,5h-96a5,5,0,0,1,-5,-5v-12a5,5,0,0,1,5,-5z" stroke-width="3"></path><g id="node_text114" fill="black"><text id="kity_text_929" text-rendering="inherit" font-size="12" dy=".8em" y="609.7000081315637" x="100.50000297278166">location-based</text></g></g><g id="minder_node115" display="none"><g id="node_expander114" style="cursor: pointer;" display="none"><path id="kity_path_940" fill="white" stroke="gray" d="M100.50000288337469,647.5000086054206A6,6,0,1,1,88.50000288337469,647.5000086054206A6,6,0,1,1,100.50000288337469,647.5000086054206"></path><path id="kity_path_941" fill="none" stroke="gray"></path></g><path id="node_outline115" fill="none" stroke="none" d="M95.50000297278166,636.5000086054206h133a5,5,0,0,1,5,5v12a5,5,0,0,1,-5,5h-133a5,5,0,0,1,-5,-5v-12a5,5,0,0,1,5,-5z" stroke-width="3"></path><g id="node_text115" fill="black"><text id="kity_text_937" text-rendering="inherit" font-size="12" dy=".8em" y="639.7000085785985" x="100.50000297278166">Concatenation-based</text></g></g><g id="minder_node116" opacity="1" display="none"><g id="node_expander115" style="cursor: pointer;" display="none"><path id="kity_path_948" fill="white" stroke="gray" d="M100.50000288337469,587.5000077113509A6,6,0,1,1,88.50000288337469,587.5000077113509A6,6,0,1,1,100.50000288337469,587.5000077113509"></path><path id="kity_path_949" fill="none" stroke="gray"></path></g><path id="node_outline116" fill="none" stroke="none" d="M95.50000297278166,576.5000077113509h100a5,5,0,0,1,5,5v12a5,5,0,0,1,-5,5h-100a5,5,0,0,1,-5,-5v-12a5,5,0,0,1,5,-5z" stroke-width="3"></path><g id="node_text116" fill="black"><text id="kity_text_945" text-rendering="inherit" font-size="12" dy=".8em" y="579.7000076845288" x="100.50000297278166">encode-decode</text></g></g><g id="kity_g_12" display="none"><path id="kity_path_13" fill="none" stroke="rgb(66, 94, 112)" d="M59.50000514835119,2407.4999995604157h96a5,5,0,0,1,5,5v12a5,5,0,0,1,-5,5h-96a5,5,0,0,1,-5,-5v-12a5,5,0,0,1,5,-5z" stroke-width="5"></path></g><g id="minder_node117" display="none"><g id="node_expander116" style="cursor: pointer;" display="none"><path id="kity_path_956" fill="white" stroke="gray" d="M100.50000288337469,677.5000090524554A6,6,0,1,1,88.50000288337469,677.5000090524554A6,6,0,1,1,100.50000288337469,677.5000090524554"></path><path id="kity_path_957" fill="none" stroke="gray"></path></g><path id="node_outline117" fill="none" stroke="none" d="M95.50000297278166,666.5000090524554h103a5,5,0,0,1,5,5v12a5,5,0,0,1,-5,5h-103a5,5,0,0,1,-5,-5v-12a5,5,0,0,1,5,-5z"></path><g id="node_text117" fill="black"><text id="kity_text_953" text-rendering="inherit" font-size="12" dy=".8em" y="669.7000090256333" x="100.50000297278166">Bidirection RNN</text></g></g><g id="minder_node118" display="none"><g id="node_expander117" style="cursor: pointer;" display="none"><path id="kity_path_964" fill="white" stroke="gray" d="M100.50000288337469,707.5000094994903A6,6,0,1,1,88.50000288337469,707.5000094994903A6,6,0,1,1,100.50000288337469,707.5000094994903"></path><path id="kity_path_965" fill="none" stroke="gray"></path></g><path id="node_outline118" fill="none" stroke="none" d="M95.50000297278166,696.5000094994903h96a5,5,0,0,1,5,5v12a5,5,0,0,1,-5,5h-96a5,5,0,0,1,-5,-5v-12a5,5,0,0,1,5,-5z" stroke-width="3"></path><g id="node_text118" fill="black"><text id="kity_text_961" text-rendering="inherit" font-size="12" dy=".8em" y="699.7000094726682" x="100.50000297278166">Context Vector</text></g></g><g id="minder_node119" display="none"><g id="node_expander118" style="cursor: pointer;" display="none"><path id="kity_path_972" fill="white" stroke="gray" d="M100.50000288337469,737.5000099465251A6,6,0,1,1,88.50000288337469,737.5000099465251A6,6,0,1,1,100.50000288337469,737.5000099465251"></path><path id="kity_path_973" fill="none" stroke="gray"></path></g><path id="node_outline119" fill="none" stroke="none" d="M95.50000297278166,726.5000099465251h91a5,5,0,0,1,5,5v12a5,5,0,0,1,-5,5h-91a5,5,0,0,1,-5,-5v-12a5,5,0,0,1,5,-5z" stroke-width="3"></path><g id="node_text119" fill="black"><text id="kity_text_969" text-rendering="inherit" font-size="12" dy=".8em" y="729.700009919703" x="100.50000297278166">Soft Attention</text></g></g><g id="minder_node120" display="none"><g id="node_expander119" style="cursor: pointer;" display="none"><path id="kity_path_980" fill="white" stroke="gray" d="M100.50000288337469,767.5000103935599A6,6,0,1,1,88.50000288337469,767.5000103935599A6,6,0,1,1,100.50000288337469,767.5000103935599"></path><path id="kity_path_981" fill="none" stroke="gray"></path></g><path id="node_outline120" fill="none" stroke="none" d="M95.50000297278166,756.5000103935599h210a5,5,0,0,1,5,5v12a5,5,0,0,1,-5,5h-210a5,5,0,0,1,-5,-5v-12a5,5,0,0,1,5,-5z" stroke-width="3"></path><g id="node_text120" fill="black"><text id="kity_text_977" text-rendering="inherit" font-size="12" dy=".8em" y="759.7000103667378" x="100.50000297278166">Global Attention &amp; Local Attention</text></g></g><g id="minder_node121" display="none"><g id="node_expander120" style="cursor: pointer;" display="none"><path id="kity_path_988" fill="white" stroke="gray" d="M100.50000288337469,639.5000084862113A6,6,0,1,1,88.50000288337469,639.5000084862113A6,6,0,1,1,100.50000288337469,639.5000084862113"></path><path id="kity_path_989" fill="none" stroke="gray"></path></g><path id="node_outline121" fill="none" stroke="none" d="M95.50000297278166,628.5000084862113h59a5,5,0,0,1,5,5v12a5,5,0,0,1,-5,5h-59a5,5,0,0,1,-5,-5v-12a5,5,0,0,1,5,-5z" stroke-width="3"></path><g id="node_text121" fill="black"><text id="kity_text_985" text-rendering="inherit" font-size="12" dy=".8em" y="631.7000084593892" x="100.50000297278166">SeqGAN</text></g></g><g id="minder_node122" display="none"><g id="node_expander121" style="cursor: pointer;" display="none"><path id="kity_path_996" fill="white" stroke="gray" d="M100.50000288337469,691.5000092610717A6,6,0,1,1,88.50000288337469,691.5000092610717A6,6,0,1,1,100.50000288337469,691.5000092610717"></path><path id="kity_path_997" fill="none" stroke="gray"></path></g><path id="node_outline122" fill="none" stroke="none" d="M95.50000297278166,680.5000092610717h36a5,5,0,0,1,5,5v12a5,5,0,0,1,-5,5h-36a5,5,0,0,1,-5,-5v-12a5,5,0,0,1,5,-5z" stroke-width="3"></path><g id="node_text122" fill="black"><text id="kity_text_993" text-rendering="inherit" font-size="12" dy=".8em" y="683.7000092342496" x="100.50000297278166">本体</text></g></g><g id="minder_node123" display="none"><g id="node_expander122" style="cursor: pointer;" display="none"><path id="kity_path_1004" fill="white" stroke="gray" d="M100.50000288337469,721.5000097081065A6,6,0,1,1,88.50000288337469,721.5000097081065A6,6,0,1,1,100.50000288337469,721.5000097081065"></path><path id="kity_path_1005" fill="none" stroke="gray"></path></g><path id="node_outline123" fill="none" stroke="none" d="M95.50000297278166,710.5000097081065h36a5,5,0,0,1,5,5v12a5,5,0,0,1,-5,5h-36a5,5,0,0,1,-5,-5v-12a5,5,0,0,1,5,-5z" stroke-width="3"></path><g id="node_text123" fill="black"><text id="kity_text_1001" text-rendering="inherit" font-size="12" dy=".8em" y="713.7000096812844" x="100.50000297278166">实体</text></g></g><g id="minder_node124" display="none"><g id="node_expander123" style="cursor: pointer;" display="none"><path id="kity_path_1012" fill="white" stroke="gray" d="M100.50000288337469,751.5000101551414A6,6,0,1,1,88.50000288337469,751.5000101551414A6,6,0,1,1,100.50000288337469,751.5000101551414"></path><path id="kity_path_1013" fill="none" stroke="gray"></path></g><path id="node_outline124" fill="none" stroke="none" d="M95.50000297278166,740.5000101551414h35a5,5,0,0,1,5,5v12a5,5,0,0,1,-5,5h-35a5,5,0,0,1,-5,-5v-12a5,5,0,0,1,5,-5z" stroke-width="3"></path><g id="node_text124" fill="black"><text id="kity_text_1009" text-rendering="inherit" font-size="12" dy=".8em" y="743.7000101283193" x="100.50000297278166">关系</text></g></g><g id="minder_node125" display="none"><g id="node_expander124" style="cursor: pointer;" display="none"><path id="kity_path_1020" fill="white" stroke="gray" d="M100.50000288337469,781.5000106021762A6,6,0,1,1,88.50000288337469,781.5000106021762A6,6,0,1,1,100.50000288337469,781.5000106021762"></path><path id="kity_path_1021" fill="none" stroke="gray"></path></g><path id="node_outline125" fill="none" stroke="none" d="M95.50000297278166,770.5000106021762h36a5,5,0,0,1,5,5v12a5,5,0,0,1,-5,5h-36a5,5,0,0,1,-5,-5v-12a5,5,0,0,1,5,-5z" stroke-width="3"></path><g id="node_text125" fill="black"><text id="kity_text_1017" text-rendering="inherit" font-size="12" dy=".8em" y="773.7000105753541" x="100.50000297278166">属性</text></g></g></g></g></svg>